<svg id="Layer_1" data-name="Layer 1" xmlns="http://www.w3.org/2000/svg" viewBox="0 0 576.5 514.21"><defs><style>.cls-1{fill:#f2f2f7;}.cls-2{fill:#a4dadd;}.cls-3{fill:#fff;}.cls-3,.cls-6,.cls-7{stroke:#8587bd;}.cls-3,.cls-4,.cls-6,.cls-7,.cls-8{stroke-miterlimit:10;}.cls-3,.cls-4,.cls-7,.cls-8{stroke-width:6px;}.cls-4,.cls-6,.cls-7,.cls-8{fill:none;}.cls-4,.cls-8{stroke:#f5a85b;}.cls-4{stroke-dasharray:31.29 12.51;}.cls-5{fill:#8587bd;}.cls-6{stroke-width:5.68px;}.cls-9{fill:#f5a85b;}</style></defs><title>ilustraçõesSpa [Recovered]</title><path class="cls-1" d="M186.21,88.48c33.43,10.64,84.51,38.33,139.34-15.64s118.15-100,159.3-54c20,22.38,39,56.77,32,125s22.81,156.28,45.9,194.64C579.89,367,620.11,533.16,384.21,493.2s-179.8-95.81-278-131S-25.11,239,19.52,196,17.48,34.76,186.21,88.48Z"/><path class="cls-2" d="M455.35,359.23h23.3a8.38,8.38,0,0,1,8.39,8.39v75.31a8.38,8.38,0,0,1-8.39,8.38H455.19l12.23-46Z"/><circle class="cls-3" cx="382.66" cy="114.37" r="50.35"/><path class="cls-4" d="M310,114.37a72.7,72.7,0,1,1,72.7,72.69"/><path class="cls-5" d="M359.74,144.31h45.83c0-14.09-6.08-26.12-14.64-30.92a15.67,15.67,0,1,0-16.55,0C365.82,118.19,359.74,130.22,359.74,144.31Z"/><line class="cls-6" x1="312.98" y1="156.76" x2="225.77" y2="228.11"/><line class="cls-6" x1="213.81" y1="326.2" x2="258.96" y2="372.22"/><circle class="cls-7" cx="183.64" cy="265.22" r="56.32"/><path class="cls-5" d="M158,298.71h51.25c0-15.75-6.79-29.21-16.37-34.58a17.52,17.52,0,1,0-18.51,0C164.8,269.5,158,283,158,298.71Z"/><circle class="cls-8" cx="359.74" cy="405.27" r="105.94"/><path class="cls-9" d="M311.54,468.26H408c0-29.63-12.78-54.95-30.8-65.05a33,33,0,1,0-34.81,0C324.32,413.31,311.54,438.63,311.54,468.26Z"/></svg>