<svg xmlns="http://www.w3.org/2000/svg" viewBox="0 0 536.15 474.44"><defs><style>.cls-1{fill:#f2f2f7;}.cls-2{fill:#0b253f;}.cls-3{fill:#16b1ef;}.cls-4{fill:#d1e6e8;}.cls-5{fill:#6b8ea5;}.cls-6{fill:#c5e5ff;}.cls-7{fill:#202121;opacity:0.5;}.cls-8{fill:#fff;}.cls-9{fill:#615d77;}.cls-10{fill:#3f444c;}.cls-11{fill:#64647a;}.cls-12{fill:#209cd3;}.cls-13{fill:#dae9f2;}.cls-14{fill:#8fc3d5;}.cls-15{fill:#2f2f35;stroke:#fff;stroke-miterlimit:10;stroke-width:3.85px;}.cls-16{fill:#8587bd;}.cls-17{fill:#373a97;}.cls-18{fill:#fec00f;}</style></defs><title>Asset 26</title><g id="Layer_2" data-name="Layer 2"><g id="Layer_1-2" data-name="Layer 1"><path class="cls-1" d="M162.41,443.5s19.76-19.46,82.25-7.3,126.59,54.34,172.26,31.63-1.6-82.72,17.63-121.65,45.67-81.74,76.92-103.73S550.73,94.76,497.05,49.34,380.07-6.87,336,3.8,185.37,75.22,135.7,56.6s-121,13.83-133,89.25,20,135.45,20.84,164.64S37.7,545.69,162.41,443.5Z"/><path class="cls-2" d="M447.56,440.24c0,4.29-3.86,7.77-8.61,7.77H72.1c-4.75,0-8.61-3.48-8.61-7.77V237c0-4.3,3.86-7.78,8.61-7.78H439c4.75,0,8.61,3.48,8.61,7.78Z"/><path class="cls-3" d="M425.7,426.53a1.6,1.6,0,0,1-1.67,1.53H86.27a1.6,1.6,0,0,1-1.67-1.53v-175A1.6,1.6,0,0,1,86.27,250H424a1.61,1.61,0,0,1,1.67,1.53Z"/><path class="cls-2" d="M480.77,453.55c0,4.56-10.91,8.26-16.4,8.26H41c-5.49,0-16.39-3.7-16.39-8.26Z"/><path class="cls-4" d="M481.85,453.61c0,1.53-1.93,2.77-4.31,2.77H27.85c-2.38,0-4.3-1.24-4.3-2.77v-9c0-1.54,1.92-2.78,4.3-2.78H477.54c2.38,0,4.31,1.24,4.31,2.78Z"/><path class="cls-2" d="M455.12,449.35a.92.92,0,0,1-.93.92H422.56c-.44,0-.68-.35-.68-.92h0a.73.73,0,0,1,.81-.8h31.63a.73.73,0,0,1,.8.8Z"/><path class="cls-5" d="M454.26,448.1H422.92c-.88,0-1.6.41-1.6,1.22a1.34,1.34,0,0,0,1.48,1.33h31.33c.89,0,1.73-.54,1.73-1.33S455.14,448.1,454.26,448.1Zm-.15,1.79H422.93c-.43,0-.65-.2-.65-.58s.31-.43.7-.46h31.15c.42,0,.77.07.77.46S454.48,449.84,454.11,449.89Z"/><path class="cls-5" d="M64,449.38a2.57,2.57,0,1,1-2.56-2.31A2.44,2.44,0,0,1,64,449.38Z"/><path class="cls-2" d="M63.12,449.38a1.65,1.65,0,1,1-1.65-1.49A1.57,1.57,0,0,1,63.12,449.38Z"/><path class="cls-5" d="M55.42,449.38a2.57,2.57,0,1,1-2.56-2.31A2.44,2.44,0,0,1,55.42,449.38Z"/><path class="cls-2" d="M54.51,449.38a1.65,1.65,0,1,1-1.65-1.49A1.57,1.57,0,0,1,54.51,449.38Z"/><path d="M427,249.05H84.08a1.57,1.57,0,0,0-1.62,1.51V426.72a1.57,1.57,0,0,0,1.62,1.5H427a1.57,1.57,0,0,0,1.62-1.5V250.56A1.57,1.57,0,0,0,427,249.05Zm-.52,175.25a1.52,1.52,0,0,1-1.58,1.46H86.18a1.52,1.52,0,0,1-1.58-1.46v-172a1.52,1.52,0,0,1,1.58-1.45H424.87a1.52,1.52,0,0,1,1.58,1.45Z"/><path class="cls-5" d="M255.92,239.22a4.51,4.51,0,1,1-4.48-4.05A4.28,4.28,0,0,1,255.92,239.22Z"/><path class="cls-2" d="M253.63,239.22a2.21,2.21,0,1,1-2.19-2A2.1,2.1,0,0,1,253.63,239.22Z"/><path class="cls-3" d="M426.47,424.82a1.6,1.6,0,0,1-1.67,1.53H87a1.6,1.6,0,0,1-1.67-1.53v-175A1.61,1.61,0,0,1,87,248.24H424.8a1.61,1.61,0,0,1,1.67,1.53Z"/><rect class="cls-6" x="97.66" y="255.65" width="311.44" height="164.73"/><rect class="cls-7" x="97.83" y="255.65" width="311.27" height="9.35"/><path class="cls-8" d="M405.47,260.32a2.42,2.42,0,1,1-2.41-2.18A2.3,2.3,0,0,1,405.47,260.32Z"/><path class="cls-8" d="M397.82,260.32a2.42,2.42,0,1,1-2.4-2.18A2.3,2.3,0,0,1,397.82,260.32Z"/><rect class="cls-8" x="103.41" y="259.35" width="14.64" height="1.94"/><rect class="cls-8" x="292.35" y="279.82" width="99.88" height="111.84" rx="6.15"/><path class="cls-9" d="M386.08,280.59a5.39,5.39,0,0,1,5.38,5.38V385.5a5.38,5.38,0,0,1-5.38,5.38H298.51a5.39,5.39,0,0,1-5.39-5.38V286a5.4,5.4,0,0,1,5.39-5.38h87.57m0-1.54H298.51a6.92,6.92,0,0,0-6.93,6.92V385.5a6.93,6.93,0,0,0,6.93,6.93h87.57A6.93,6.93,0,0,0,393,385.5V286a6.92,6.92,0,0,0-6.93-6.92Z"/><path class="cls-10" d="M386.08,279.05H298.51a6.92,6.92,0,0,0-6.93,6.92v13.12H393V286A6.92,6.92,0,0,0,386.08,279.05Z"/><rect class="cls-10" x="300.88" y="309.77" width="31.79" height="2.86"/><rect class="cls-10" x="300.88" y="369.9" width="34.11" height="2.87"/><rect class="cls-11" x="300.88" y="378.27" width="29.1" height="2.87"/><rect class="cls-10" x="347.91" y="369.9" width="34.11" height="2.87"/><rect class="cls-11" x="347.91" y="378.27" width="29.1" height="2.87"/><rect class="cls-12" x="363.59" y="309.77" width="20.2" height="2.86"/><rect class="cls-13" x="301.73" y="323.25" width="35.24" height="38.25"/><path class="cls-14" d="M337.7,362.23H301V322.52H337.7v39.71Zm-35.24-1.47h33.77V324H302.46v36.77Z"/><rect class="cls-13" x="347.62" y="323.25" width="35.24" height="38.25"/><path class="cls-14" d="M383.59,362.23h-36.7V322.52h36.7v39.71Zm-35.23-1.47h33.77V324H348.36v36.77Z"/><polygon class="cls-15" points="409.1 375.46 356.46 333.7 362.18 400.64 378.33 391.97 390.37 414.4 404.98 406.56 392.94 384.13 409.1 375.46"/><path class="cls-16" d="M389.8,122.63a63,63,0,0,0-.51-7.94L406.4,99.23a80.35,80.35,0,0,0-6.15-14.85l-23,1.18A61.18,61.18,0,0,0,366,74.33l1.17-23a80.07,80.07,0,0,0-14.85-6.15L336.86,62.26a62.14,62.14,0,0,0-15.89,0L305.52,45.15a80.07,80.07,0,0,0-14.85,6.15l1.18,23a61.23,61.23,0,0,0-11.23,11.23l-23-1.18a81.08,81.08,0,0,0-6.16,14.85l17.12,15.46a60.88,60.88,0,0,0,0,15.88L251.43,146a81.08,81.08,0,0,0,6.16,14.85l23-1.18a61.23,61.23,0,0,0,11.23,11.23l-1.18,23a80.07,80.07,0,0,0,14.85,6.15L321,183a62.14,62.14,0,0,0,15.89,0l15.45,17.11A80.07,80.07,0,0,0,367.16,194l-1.17-23a61.18,61.18,0,0,0,11.22-11.23l23,1.18A80.35,80.35,0,0,0,406.4,146l-17.11-15.46A63,63,0,0,0,389.8,122.63Zm-60.88,24.85a24.85,24.85,0,1,1,24.85-24.85A24.85,24.85,0,0,1,328.92,147.48Z"/><path class="cls-17" d="M484.84,98.55a30.8,30.8,0,0,0-.17-4.2l9.23-7.95a42.57,42.57,0,0,0-3.06-7.92l-12.18.33a32.58,32.58,0,0,0-5.78-6.07l.91-12.15A42.88,42.88,0,0,0,466,57.15L457.65,66a34,34,0,0,0-4.19-.38,32.48,32.48,0,0,0-4.2.18l-7.94-9.24a42.57,42.57,0,0,0-7.92,3.06l.32,12.18a32.64,32.64,0,0,0-6.07,5.79l-12.15-.92a42.56,42.56,0,0,0-3.43,7.77l8.84,8.38a32,32,0,0,0-.37,4.18,30.88,30.88,0,0,0,.17,4.21l-9.24,7.94a42.57,42.57,0,0,0,3.06,7.92l12.18-.33a32.34,32.34,0,0,0,5.79,6.07L431.59,135a42.2,42.2,0,0,0,7.76,3.44l8.38-8.84a32,32,0,0,0,4.19.37,34.38,34.38,0,0,0,4.2-.17l7.94,9.23a42.57,42.57,0,0,0,7.92-3.06l-.33-12.18a32,32,0,0,0,6.07-5.78l12.15.91a42.5,42.5,0,0,0,3.44-7.76l-8.84-8.38A32.14,32.14,0,0,0,484.84,98.55ZM452.37,110.9a13.13,13.13,0,1,1,13.44-12.81A13.13,13.13,0,0,1,452.37,110.9Z"/><path class="cls-8" d="M43.62,185.35H222.81a8.32,8.32,0,0,1,8.32,8.32V342.12a8.32,8.32,0,0,1-8.32,8.32H43.63a8.33,8.33,0,0,1-8.33-8.33V193.68a8.32,8.32,0,0,1,8.32-8.32Z"/><path class="cls-18" d="M222.81,186.4a7.28,7.28,0,0,1,7.27,7.28V342.12a7.29,7.29,0,0,1-7.27,7.28H43.62a7.29,7.29,0,0,1-7.28-7.28V193.68a7.29,7.29,0,0,1,7.28-7.28H222.81m0-2.09H43.62a9.37,9.37,0,0,0-9.37,9.37V342.12a9.38,9.38,0,0,0,9.37,9.37H222.81a9.37,9.37,0,0,0,9.36-9.37V193.68a9.36,9.36,0,0,0-9.36-9.37Z"/><path class="cls-18" d="M222.81,184.31H43.62a9.37,9.37,0,0,0-9.37,9.37v17.75H232.17V193.68A9.36,9.36,0,0,0,222.81,184.31Z"/><rect class="cls-10" x="46.84" y="225.88" width="43.01" height="3.88"/><rect class="cls-10" x="46.84" y="310.3" width="46.14" height="3.88"/><rect class="cls-11" x="46.84" y="321.62" width="39.37" height="3.88"/><rect class="cls-11" x="46.84" y="332.94" width="39.37" height="3.88"/><rect class="cls-10" x="107.95" y="310.3" width="46.15" height="3.88"/><rect class="cls-11" x="107.95" y="321.62" width="39.37" height="3.88"/><rect class="cls-11" x="107.95" y="332.94" width="39.37" height="3.88"/><rect class="cls-10" x="170.05" y="310.3" width="46.15" height="3.88"/><rect class="cls-11" x="170.05" y="321.62" width="39.37" height="3.88"/><rect class="cls-11" x="170.05" y="332.94" width="39.37" height="3.88"/><rect class="cls-12" x="192.26" y="225.88" width="27.32" height="3.88"/><rect class="cls-12" x="157.78" y="225.88" width="27.32" height="3.88"/><rect class="cls-12" x="123.29" y="225.88" width="27.33" height="3.88"/><rect class="cls-13" x="46.84" y="244.47" width="47.68" height="51.75"/><path class="cls-14" d="M95.51,297.22H45.85V243.48H95.51v53.74Zm-47.67-2H93.53V245.47H47.84v49.76Z"/><rect class="cls-13" x="108.94" y="244.47" width="47.67" height="51.75"/><path class="cls-14" d="M157.61,297.22H108V243.48h49.66v53.74Zm-47.68-2h45.7V245.47h-45.7v49.76Z"/><rect class="cls-13" x="171.04" y="244.47" width="47.68" height="51.75"/><path class="cls-14" d="M219.71,297.22H170.05V243.48h49.66v53.74Zm-47.68-2h45.69V245.47H172v49.76Z"/></g></g></svg>