<svg xmlns="http://www.w3.org/2000/svg" xmlns:xlink="http://www.w3.org/1999/xlink" viewBox="0 0 535.13 549.45"><defs><style>.cls-1{fill:#f2f2f7;}.cls-2,.cls-8{fill:none;stroke-miterlimit:10;stroke-width:2.23px;stroke-dasharray:6.69 8.92;}.cls-2{stroke:#e7930f;}.cls-3{fill:url(#linear-gradient);}.cls-4{fill:url(#linear-gradient-2);}.cls-5{fill:url(#linear-gradient-3);}.cls-6{fill:url(#linear-gradient-4);}.cls-7{fill:url(#linear-gradient-5);}.cls-8{stroke:#373a97;}.cls-9{fill:#373b41;}.cls-10{fill:#ededed;}.cls-11{fill:#64696e;}.cls-12{fill:#0b253f;}.cls-13,.cls-19{fill:#16b1ef;}.cls-14{fill:#d1e6e8;}.cls-15{fill:#6b8ea5;}.cls-16{fill:#434345;}.cls-16,.cls-17,.cls-19,.cls-20,.cls-21,.cls-22,.cls-23,.cls-24,.cls-25,.cls-27{fill-rule:evenodd;}.cls-17{fill:#333132;}.cls-18,.cls-24{fill:#58595b;}.cls-20{fill:#4d4e4f;}.cls-21{fill:#6d6e70;}.cls-22,.cls-26{fill:#404041;}.cls-23{fill:#2f2f30;}.cls-25{fill:#929497;}.cls-27{fill:#808184;}</style><linearGradient id="linear-gradient" x1="308.13" y1="253.56" x2="332.97" y2="253.56" gradientUnits="userSpaceOnUse"><stop offset="0" stop-color="#0098b0"/><stop offset="0.97" stop-color="#76ccd1"/></linearGradient><linearGradient id="linear-gradient-2" x1="256.81" y1="273.14" x2="305.64" y2="273.14" xlink:href="#linear-gradient"/><linearGradient id="linear-gradient-3" x1="201.62" y1="281.19" x2="299.98" y2="281.19" gradientUnits="userSpaceOnUse"><stop offset="0" stop-color="#1b75bb"/><stop offset="1" stop-color="#2e3191"/></linearGradient><linearGradient id="linear-gradient-4" x1="256.81" y1="265.71" x2="325.8" y2="265.71" xlink:href="#linear-gradient-3"/><linearGradient id="linear-gradient-5" x1="308.13" y1="243.69" x2="357.81" y2="243.69" xlink:href="#linear-gradient-3"/></defs><title>Asset 30</title><g id="Layer_2" data-name="Layer 2"><g id="Layer_1-2" data-name="Layer 1"><path class="cls-1" d="M448.35,167.74c79.92,23.62-15.59,94.23,28.83,223C498.42,452.29,505.46,510.9,304,510.9S-11.73,386.07,1,292,16.82,168,116.77,130s64.11-98.48,120.9-97.56S315.08,112.58,353.16,130,425.29,160.93,448.35,167.74Z"/><circle class="cls-2" cx="460.25" cy="415.64" r="73.77"/><circle class="cls-2" cx="96.18" cy="415.64" r="73.77"/><circle class="cls-2" cx="278.21" cy="474.56" r="73.77"/><circle class="cls-2" cx="96.18" cy="133.81" r="73.77"/><circle class="cls-2" cx="460.25" cy="133.81" r="73.77"/><circle class="cls-2" cx="278.21" cy="74.89" r="73.77"/><path class="cls-3" d="M312.66,264.66s-1.32-26-4.53-34.76l20.35,5.43,4.49,19s-7.36-7.77-4.63-6.26-2.54,29.17-2.54,29.17Z"/><path class="cls-4" d="M256.81,230.34l18.42,56.85L300,316a140,140,0,0,0,5.62-32c1.26-19-24.4-46.84-24.4-46.84Z"/><path class="cls-5" d="M245.42,229.33c-24.57-2.5-43.8-6.61-43.8-6.61s52.79,93.68,78.1,116.94c5.83-5.12,12.85-13.59,20.26-23.71C279.22,287.29,254.66,245.4,245.42,229.33Z"/><path class="cls-6" d="M256.81,230.34c8,11.23,31.42,43.89,53.57,70.75,5.22-7.74,10.44-15.88,15.42-23.87-11.78-18.75-22.27-36.66-28-46.56-6,.36-12,.57-18.09.57C272,231.23,264.29,230.88,256.81,230.34Z"/><path class="cls-7" d="M333.5,264.66c13.89-23,24.31-41.94,24.31-41.94a457.21,457.21,0,0,1-49.68,7.18C312.46,236,322,249.32,333.5,264.66Z"/><line class="cls-8" x1="278.19" y1="355.34" x2="278.19" y2="393.67"/><line class="cls-8" x1="278.19" y1="155.17" x2="278.19" y2="214.55"/><line class="cls-8" x1="388.88" y1="186.2" x2="361.77" y2="213.3"/><line class="cls-8" x1="169.77" y1="187.31" x2="196.88" y2="214.42"/><line class="cls-8" x1="160.63" y1="362.89" x2="219.02" y2="304.5"/><line class="cls-8" x1="396.91" y1="362.89" x2="340.26" y2="306.25"/><rect class="cls-9" x="441.47" y="379.1" width="38.45" height="78.3" rx="6.45" transform="translate(-26.87 31.66) rotate(-3.82)"/><rect class="cls-10" x="444.25" y="390.01" width="32.99" height="56.29" transform="translate(948.27 804.77) rotate(176.19)"/><ellipse class="cls-11" cx="463.3" cy="451.51" rx="3.61" ry="3.62" transform="translate(10.67 913.72) rotate(-89.86)"/><path class="cls-12" d="M139.37,435.05a1.89,1.89,0,0,1-2,1.78h-84a1.88,1.88,0,0,1-2-1.78V388.54a1.88,1.88,0,0,1,2-1.78h84a1.89,1.89,0,0,1,2,1.78Z"/><path class="cls-13" d="M134.36,431.91a.37.37,0,0,1-.38.35H56.68a.37.37,0,0,1-.38-.35V391.85a.36.36,0,0,1,.38-.35H134a.36.36,0,0,1,.38.35Z"/><path class="cls-12" d="M147,438.09c0,1.05-2.5,1.89-3.76,1.89H46.33c-1.26,0-3.76-.84-3.76-1.89Z"/><path class="cls-14" d="M147.21,438.11c0,.35-.44.63-1,.63H43.31c-.54,0-1-.28-1-.63V436c0-.35.44-.64,1-.64H146.23c.54,0,1,.29,1,.64Z"/><path class="cls-12" d="M141.1,437.13a.21.21,0,0,1-.22.21h-7.23c-.11,0-.16-.08-.16-.21h0a.17.17,0,0,1,.19-.18h7.23a.17.17,0,0,1,.19.18Z"/><path class="cls-15" d="M140.9,436.85h-7.17c-.2,0-.37.09-.37.27a.31.31,0,0,0,.34.31h7.17c.2,0,.4-.12.4-.31S141.1,436.85,140.9,436.85Zm0,.4h-7.14c-.1,0-.15-.05-.15-.14s.07-.09.16-.1h7.13c.1,0,.18,0,.18.1S141,437.24,140.87,437.25Z"/><path class="cls-15" d="M51.59,437.14a.59.59,0,1,1-.58-.53A.56.56,0,0,1,51.59,437.14Z"/><path class="cls-12" d="M51.38,437.14a.38.38,0,1,1-.37-.34A.36.36,0,0,1,51.38,437.14Z"/><path class="cls-15" d="M49.62,437.14a.59.59,0,1,1-.58-.53A.56.56,0,0,1,49.62,437.14Z"/><path class="cls-12" d="M49.41,437.14a.38.38,0,1,1-.37-.34A.36.36,0,0,1,49.41,437.14Z"/><path d="M134.65,391.29H56.18a.37.37,0,0,0-.37.35V432a.37.37,0,0,0,.37.35h78.47A.37.37,0,0,0,135,432V391.64A.37.37,0,0,0,134.65,391.29Zm-.11,40.11a.36.36,0,0,1-.37.33H56.66a.35.35,0,0,1-.36-.33V392a.35.35,0,0,1,.36-.33h77.51a.36.36,0,0,1,.37.33Z"/><path class="cls-15" d="M95.51,389a1,1,0,1,1-1-.93A1,1,0,0,1,95.51,389Z"/><path class="cls-12" d="M95,389a.5.5,0,0,1-1,0,.5.5,0,0,1,1,0Z"/><path class="cls-10" d="M134.54,431.52a.37.37,0,0,1-.38.35H56.86a.37.37,0,0,1-.38-.35V391.46a.36.36,0,0,1,.38-.35h77.3a.36.36,0,0,1,.38.35Z"/><path class="cls-12" d="M323.15,501.41a1.88,1.88,0,0,1-2,1.78h-84a1.88,1.88,0,0,1-2-1.78v-46.5a1.88,1.88,0,0,1,2-1.78h84a1.88,1.88,0,0,1,2,1.78Z"/><path class="cls-13" d="M318.14,498.28a.37.37,0,0,1-.38.35h-77.3a.37.37,0,0,1-.38-.35V458.21a.37.37,0,0,1,.38-.35h77.3a.37.37,0,0,1,.38.35Z"/><path class="cls-12" d="M330.75,504.46c0,1-2.5,1.89-3.76,1.89H230.11c-1.26,0-3.76-.85-3.76-1.89Z"/><path class="cls-14" d="M331,504.47c0,.35-.44.64-1,.64H227.09c-.54,0-1-.29-1-.64v-2.06c0-.36.44-.64,1-.64H330c.54,0,1,.28,1,.64Z"/><path class="cls-12" d="M324.88,503.5a.21.21,0,0,1-.22.21h-7.23c-.11,0-.16-.08-.16-.21h0a.17.17,0,0,1,.19-.19h7.23a.18.18,0,0,1,.19.19Z"/><path class="cls-15" d="M324.68,503.21h-7.17c-.2,0-.37.1-.37.28a.31.31,0,0,0,.34.31h7.17c.2,0,.4-.13.4-.31S324.88,503.21,324.68,503.21Zm0,.41h-7.14c-.1,0-.15,0-.15-.13s.07-.1.16-.11h7.13c.1,0,.18,0,.18.11S324.73,503.61,324.65,503.62Z"/><path class="cls-15" d="M235.37,503.5a.59.59,0,1,1-.58-.52A.55.55,0,0,1,235.37,503.5Z"/><path class="cls-12" d="M235.16,503.5a.38.38,0,0,1-.75,0,.38.38,0,0,1,.75,0Z"/><path class="cls-15" d="M233.4,503.5a.59.59,0,1,1-.58-.52A.55.55,0,0,1,233.4,503.5Z"/><path class="cls-12" d="M233.19,503.5a.38.38,0,0,1-.75,0,.38.38,0,0,1,.75,0Z"/><path d="M318.43,457.66H240a.36.36,0,0,0-.37.34v40.32a.36.36,0,0,0,.37.34h78.47a.36.36,0,0,0,.38-.34V458A.36.36,0,0,0,318.43,457.66Zm-.11,40.1a.36.36,0,0,1-.37.34H240.44a.35.35,0,0,1-.36-.34V458.4a.34.34,0,0,1,.36-.33H318a.35.35,0,0,1,.37.33Z"/><path class="cls-15" d="M279.29,455.41a1,1,0,1,1-1-.93A1,1,0,0,1,279.29,455.41Z"/><path class="cls-12" d="M278.76,455.41a.5.5,0,0,1-1,0,.5.5,0,0,1,1,0Z"/><path class="cls-10" d="M318.32,497.88a.36.36,0,0,1-.38.35h-77.3a.36.36,0,0,1-.38-.35V457.82a.37.37,0,0,1,.38-.35h77.3a.37.37,0,0,1,.38.35Z"/><path class="cls-12" d="M504.55,151.36a1.88,1.88,0,0,1-2,1.78H418.63a1.88,1.88,0,0,1-2-1.78V104.85a1.88,1.88,0,0,1,2-1.78h83.95a1.88,1.88,0,0,1,2,1.78Z"/><path class="cls-13" d="M499.55,148.22a.36.36,0,0,1-.38.35h-77.3a.36.36,0,0,1-.38-.35V108.16a.37.37,0,0,1,.38-.35h77.3a.37.37,0,0,1,.38.35Z"/><path class="cls-12" d="M512.15,154.4c0,1-2.49,1.9-3.75,1.9H411.51c-1.25,0-3.75-.85-3.75-1.9Z"/><path class="cls-14" d="M512.4,154.42c0,.35-.44.63-1,.63H408.5c-.55,0-1-.28-1-.63v-2.07c0-.35.44-.63,1-.63H511.42c.54,0,1,.28,1,.63Z"/><path class="cls-12" d="M506.28,153.44a.22.22,0,0,1-.21.22h-7.24c-.1,0-.15-.09-.15-.22h0a.16.16,0,0,1,.18-.18h7.24a.16.16,0,0,1,.18.18Z"/><path class="cls-15" d="M506.09,153.16h-7.18c-.2,0-.36.09-.36.28a.3.3,0,0,0,.34.3h7.17c.2,0,.39-.12.39-.3S506.29,153.16,506.09,153.16Zm0,.41h-7.13c-.1,0-.15,0-.15-.13s.07-.1.16-.11h7.13c.09,0,.17,0,.17.11S506.14,153.56,506.05,153.57Z"/><path class="cls-15" d="M416.78,153.45a.59.59,0,1,1-.59-.53A.56.56,0,0,1,416.78,153.45Z"/><path class="cls-12" d="M416.57,153.45a.38.38,0,1,1-.38-.34A.36.36,0,0,1,416.57,153.45Z"/><path class="cls-15" d="M414.81,153.45a.59.59,0,1,1-.59-.53A.56.56,0,0,1,414.81,153.45Z"/><path class="cls-12" d="M414.6,153.45a.38.38,0,1,1-.38-.34A.36.36,0,0,1,414.6,153.45Z"/><path d="M499.84,107.6H421.37a.36.36,0,0,0-.37.35v40.31a.36.36,0,0,0,.37.35h78.47a.36.36,0,0,0,.37-.35V108A.36.36,0,0,0,499.84,107.6Zm-.12,40.11a.35.35,0,0,1-.36.34H421.85a.35.35,0,0,1-.36-.34V108.35a.35.35,0,0,1,.36-.34h77.51a.35.35,0,0,1,.36.34Z"/><path class="cls-15" d="M460.7,105.35a1,1,0,1,1-1-.92A1,1,0,0,1,460.7,105.35Z"/><path class="cls-12" d="M460.17,105.35a.5.5,0,0,1-1,0,.5.5,0,0,1,1,0Z"/><path class="cls-10" d="M499.73,147.83a.36.36,0,0,1-.39.35H422a.36.36,0,0,1-.38-.35V107.77a.37.37,0,0,1,.38-.35h77.3a.37.37,0,0,1,.39.35Z"/><polygon class="cls-16" points="89.67 152.29 99.65 152.29 101.09 167.8 88.23 167.8 89.67 152.29"/><path class="cls-17" d="M53.48,99.77h82.58a1.39,1.39,0,0,1,1.36,1.41v52.17a1.41,1.41,0,0,1-1.41,1.41H53.53a1.41,1.41,0,0,1-1.41-1.41V101.18A1.39,1.39,0,0,1,53.48,99.77Z"/><rect class="cls-18" x="53.57" y="102.84" width="82.41" height="42.9"/><polygon class="cls-19" points="53.7 102.97 53.7 145.6 75.99 145.6 135.84 145.6 135.84 102.97 118.2 102.97 53.7 102.97"/><path class="cls-20" d="M80.08,166.32h32.46a1.86,1.86,0,0,1,1.86,1.48H78.23A1.84,1.84,0,0,1,80.08,166.32Z"/><path class="cls-21" d="M68.33,166.3H66.85v-1a.23.23,0,0,1,.22-.23h1.05a.22.22,0,0,1,.21.23Z"/><path class="cls-21" d="M70,166.3H68.48v-1a.22.22,0,0,1,.21-.23h1a.23.23,0,0,1,.22.23Z"/><path class="cls-21" d="M71.58,166.3H70.1v-1a.23.23,0,0,1,.22-.23h1a.23.23,0,0,1,.22.23Z"/><path class="cls-21" d="M85.68,166.3H84.2v-1a.23.23,0,0,1,.22-.23h1a.23.23,0,0,1,.22.23Z"/><path class="cls-21" d="M87.3,166.3H85.82v-1a.23.23,0,0,1,.22-.23h1a.22.22,0,0,1,.21.23Z"/><path class="cls-21" d="M88.93,166.3H87.45v-1a.22.22,0,0,1,.21-.23h1a.23.23,0,0,1,.22.23Z"/><path class="cls-21" d="M90.58,166.3H89.1v-1a.22.22,0,0,1,.21-.23h1a.23.23,0,0,1,.22.23Z"/><path class="cls-21" d="M92.23,166.3H90.75v-1a.22.22,0,0,1,.21-.23H92a.23.23,0,0,1,.22.23Z"/><path class="cls-21" d="M93.88,166.3H92.4v-1a.22.22,0,0,1,.21-.23h1a.23.23,0,0,1,.22.23Z"/><path class="cls-21" d="M95.53,166.3H94.05v-1a.22.22,0,0,1,.21-.23h1a.23.23,0,0,1,.22.23Z"/><path class="cls-21" d="M98.12,166.3H96.64v-1a.23.23,0,0,1,.22-.23h1a.23.23,0,0,1,.22.23Z"/><path class="cls-21" d="M99.7,166.3H98.22v-1a.22.22,0,0,1,.21-.23h1a.23.23,0,0,1,.22.23Z"/><path class="cls-21" d="M101.28,166.3H99.8v-1a.22.22,0,0,1,.21-.23h1a.23.23,0,0,1,.22.23Z"/><path class="cls-21" d="M102.85,166.3h-1.48v-1a.23.23,0,0,1,.22-.23h1a.22.22,0,0,1,.21.23Z"/><path class="cls-21" d="M84,166.28l-12.28,0v-1a.23.23,0,0,1,.22-.23l11.84,0a.23.23,0,0,1,.15.07.24.24,0,0,1,.07.16Z"/><path class="cls-22" d="M103.91,167.08c0,.4-.23.72-.53.72H66.32c-.29,0-.53-.32-.53-.72v-.66c0-.4.24-.72.53-.72h37.06c.3,0,.53.32.53.72Z"/><path class="cls-23" d="M65.79,166.9v.18c0,.4.24.72.53.72h37.06c.3,0,.53-.32.53-.72v-.18Z"/><path class="cls-24" d="M130.67,166.83a.56.56,0,0,1-.56.56h-7.79a.56.56,0,0,1-.56-.56C121.76,163.61,130.67,163.53,130.67,166.83Z"/><path class="cls-25" d="M121.87,166.22c.88-2.48,7.76-2.63,8.69,0-1,.53-2.58.46-4.35.46S122.88,166.75,121.87,166.22Z"/><path class="cls-22" d="M126.63,164.46a0,0,0,0,1,0,0h-.73a.06.06,0,0,1-.06,0v-.23c0-.06.16-.12.35-.12h.15c.19,0,.34.06.34.12Z"/><rect class="cls-26" x="118.52" y="167.36" width="15.4" height="0.49" rx="0.18"/><path class="cls-27" d="M124.21,151.05a.48.48,0,0,0,0-1,.48.48,0,1,0,0,1Z"/><path class="cls-27" d="M126.73,151.05a.48.48,0,0,0,0-1,.48.48,0,1,0,0,1Z"/><path class="cls-27" d="M129.25,151.05a.48.48,0,0,0,0-1,.48.48,0,1,0,0,1Z"/><path class="cls-27" d="M131.77,151.05a.48.48,0,1,0-.47-.48A.47.47,0,0,0,131.77,151.05Z"/><rect class="cls-10" x="53.76" y="102.89" width="82.08" height="42.68"/><polygon class="cls-16" points="269.26 92.58 279.24 92.58 280.68 108.08 267.82 108.08 269.26 92.58"/><path class="cls-17" d="M233.07,40.05h82.58A1.39,1.39,0,0,1,317,41.46V93.63A1.41,1.41,0,0,1,315.6,95H233.12a1.41,1.41,0,0,1-1.41-1.41V41.46A1.39,1.39,0,0,1,233.07,40.05Z"/><rect class="cls-18" x="233.16" y="43.12" width="82.41" height="42.9"/><polygon class="cls-19" points="233.29 43.25 233.29 85.89 255.58 85.89 315.44 85.89 315.44 43.25 297.79 43.25 233.29 43.25"/><path class="cls-20" d="M259.67,106.6h32.47a1.85,1.85,0,0,1,1.85,1.48H257.82A1.84,1.84,0,0,1,259.67,106.6Z"/><path class="cls-21" d="M247.93,106.58h-1.49v-1a.22.22,0,0,1,.22-.23h1.05a.22.22,0,0,1,.22.23Z"/><path class="cls-21" d="M249.55,106.58h-1.48v-1a.22.22,0,0,1,.21-.23h1.05a.22.22,0,0,1,.22.23Z"/><path class="cls-21" d="M251.17,106.58h-1.48v-1a.22.22,0,0,1,.22-.23H251a.22.22,0,0,1,.21.23Z"/><path class="cls-21" d="M265.27,106.58h-1.48v-1a.22.22,0,0,1,.22-.23h1a.22.22,0,0,1,.22.23Z"/><path class="cls-21" d="M266.9,106.58h-1.49v-1a.22.22,0,0,1,.22-.23h1.05a.22.22,0,0,1,.22.23Z"/><path class="cls-21" d="M268.52,106.58H267v-1a.22.22,0,0,1,.22-.23h1a.22.22,0,0,1,.22.23Z"/><path class="cls-21" d="M270.17,106.58h-1.48v-1a.22.22,0,0,1,.22-.23h1a.22.22,0,0,1,.22.23Z"/><path class="cls-21" d="M271.82,106.58h-1.48v-1a.22.22,0,0,1,.22-.23h1a.22.22,0,0,1,.22.23Z"/><path class="cls-21" d="M273.47,106.58H272v-1a.22.22,0,0,1,.22-.23h1a.22.22,0,0,1,.22.23Z"/><path class="cls-21" d="M275.12,106.58h-1.48v-1a.22.22,0,0,1,.22-.23h1a.22.22,0,0,1,.22.23Z"/><path class="cls-21" d="M277.71,106.58h-1.48v-1a.22.22,0,0,1,.22-.23h1.05a.22.22,0,0,1,.21.23Z"/><path class="cls-21" d="M279.29,106.58h-1.48v-1a.22.22,0,0,1,.22-.23h1a.22.22,0,0,1,.22.23Z"/><path class="cls-21" d="M280.87,106.58h-1.48v-1a.22.22,0,0,1,.22-.23h1a.22.22,0,0,1,.22.23Z"/><path class="cls-21" d="M282.45,106.58H281v-1a.22.22,0,0,1,.21-.23h1.05a.22.22,0,0,1,.22.23Z"/><path class="cls-21" d="M263.59,106.56l-12.27,0v-1a.23.23,0,0,1,.21-.24l11.84,0a.21.21,0,0,1,.15.07.26.26,0,0,1,.07.16Z"/><path class="cls-22" d="M283.51,107.36c0,.4-.24.72-.53.72H245.92c-.3,0-.53-.32-.53-.72v-.65c0-.4.23-.73.53-.73H283c.29,0,.53.33.53.73Z"/><path class="cls-23" d="M245.39,107.19v.17c0,.4.23.72.53.72H283c.29,0,.53-.32.53-.72v-.17Z"/><path class="cls-24" d="M310.26,107.11a.56.56,0,0,1-.56.56h-7.79a.56.56,0,0,1-.56-.56C301.35,103.89,310.26,103.81,310.26,107.11Z"/><path class="cls-25" d="M301.46,106.5c.88-2.48,7.76-2.63,8.69,0-1,.54-2.57.47-4.34.47S302.47,107,301.46,106.5Z"/><path class="cls-22" d="M306.23,104.74a.06.06,0,0,1-.06.05h-.73a0,0,0,0,1-.05-.05v-.22c0-.07.15-.12.34-.12h.15c.19,0,.35,0,.35.12Z"/><rect class="cls-26" x="298.11" y="107.65" width="15.4" height="0.49" rx="0.18"/><path class="cls-27" d="M303.8,91.33a.47.47,0,0,0,.47-.47.48.48,0,0,0-.47-.48.49.49,0,0,0-.48.48A.48.48,0,0,0,303.8,91.33Z"/><path class="cls-27" d="M306.32,91.33a.48.48,0,0,0,.48-.47.49.49,0,0,0-.48-.48.48.48,0,0,0-.47.48A.47.47,0,0,0,306.32,91.33Z"/><path class="cls-27" d="M308.84,91.33a.48.48,0,0,0,.48-.47.49.49,0,0,0-.48-.48.48.48,0,0,0-.47.48A.47.47,0,0,0,308.84,91.33Z"/><path class="cls-27" d="M311.36,91.33a.48.48,0,0,0,.48-.47.49.49,0,0,0-.48-.48.48.48,0,0,0-.47.48A.47.47,0,0,0,311.36,91.33Z"/><rect class="cls-10" x="233.36" y="43.17" width="82.08" height="42.68"/></g></g></svg>