<svg xmlns="http://www.w3.org/2000/svg" viewBox="0 0 548.63 496.85"><defs><style>.cls-1{isolation:isolate;}.cls-2{fill:#f2f2f7;}.cls-3{fill:#1b1b1b;}.cls-4{fill:#5d4d3e;}.cls-5{fill:#8587bd;}.cls-6{opacity:0.3;mix-blend-mode:multiply;}.cls-7{fill:#eff0f0;}.cls-8,.cls-9{fill:#afaeb4;}.cls-10,.cls-16,.cls-17,.cls-9{fill-rule:evenodd;}.cls-10{fill:#20364d;}.cls-11{fill:#259fc0;}.cls-12{fill:#6bbcc8;}.cls-13{fill:#fff8c1;}.cls-14{fill:#f4aa10;}.cls-15{fill:#fbca47;}.cls-16,.cls-22{fill:#fff;}.cls-17{fill:#cacaca;}.cls-18{fill:#07a093;}.cls-19{fill:#fcbe10;}.cls-20{fill:#fd7c55;}.cls-21{fill:#2c465f;}.cls-23{fill:#babcbe;}.cls-24{fill:#421f0c;}.cls-25{fill:#502a14;}.cls-26{fill:#e5e5e6;}.cls-27{fill:#0f3754;}.cls-28{fill:#10303f;}.cls-29{fill:#f7ffff;}.cls-30{fill:#292929;}.cls-31{fill:#e6b088;}.cls-32{fill:#e7930f;}.cls-33{fill:#6d5316;}.cls-34{fill:#443408;}</style></defs><title>Asset 29</title><g class="cls-1"><g id="Layer_2" data-name="Layer 2"><g id="Layer_1-2" data-name="Layer 1"><path class="cls-2" d="M16.94,307.14S-48.29,441.85,77.27,438.53s109.78,37.17,176.42,35.33,212.51-4.57,239.54-63,88.26-82.64,33.09-167.14-67.44-63.6-63.94-122.81S458.88,6.48,351.9,1,92.74,12.51,53.09,84,85,176.26,77.27,218.34,46.75,269.23,16.94,307.14Z"/><rect class="cls-3" x="209.87" y="40.92" width="106.88" height="73.9" rx="1.41" transform="translate(185.44 341.19) rotate(-90)"/><rect class="cls-4" x="243.94" y="392.28" width="106.88" height="80.49" rx="1.47" transform="translate(-135.15 729.9) rotate(-90)"/><path d="M212.23,35.92a8.34,8.34,0,0,1,4.34-2l34.74-5.33a70.12,70.12,0,0,1,18.59.13l29,4.92a8.68,8.68,0,0,1,5.69,3.54l1.65-6.9a8.73,8.73,0,0,0-7-10.79l-29-4.92a70,70,0,0,0-18.58-.13l-34.74,5.33a7.79,7.79,0,0,0-6.49,10.35Z"/><path class="cls-4" d="M344.63,475.81a9,9,0,0,1-4.48,1.9L304,482.78a80.45,80.45,0,0,1-19.43-.13l-30.45-4.72a9.52,9.52,0,0,1-6-3.39l-1.55,6.6c-1.14,4.85,2.3,9.5,7.64,10.33l30.45,4.71a79.94,79.94,0,0,0,19.43.14l36.17-5.08c5.36-.75,8.29-5.2,6.52-9.89Z"/><rect class="cls-5" x="85.83" y="86.16" width="374.28" height="336.24" rx="156.32"/><g class="cls-6"><path d="M333.66,301.3l-133.61.47a1.66,1.66,0,0,0-1.76,1.53l.19,45a1.67,1.67,0,0,0,1.78,1.52l133.6-.47a1.66,1.66,0,0,0,1.77-1.53l-.19-45A1.68,1.68,0,0,0,333.66,301.3Z"/></g><g id="keyboard"><path class="cls-7" d="M335.44,302.82a1.68,1.68,0,0,0-1.78-1.52l-133.61.47a1.66,1.66,0,0,0-1.76,1.53l.19,45a1.67,1.67,0,0,0,1.78,1.52l133.6-.47a1.66,1.66,0,0,0,1.77-1.53Z"/><path class="cls-8" d="M314,346.16a.41.41,0,0,1-.43.4l-6.59,0a.42.42,0,0,1-.44-.4V343a.41.41,0,0,1,.43-.39l6.6,0a.41.41,0,0,1,.43.39Z"/><path class="cls-8" d="M332.19,346.1a.41.41,0,0,1-.43.39l-6.6,0a.42.42,0,0,1-.43-.4l0-3.16a.42.42,0,0,1,.44-.39l6.6,0a.42.42,0,0,1,.43.4Z"/><path class="cls-8" d="M284.38,346.26a.42.42,0,0,1-.44.4l-42.95.15a.42.42,0,0,1-.44-.4l0-7.1a.42.42,0,0,1,.43-.4l43-.15a.42.42,0,0,1,.44.39Z"/><path class="cls-8" d="M315.63,342.82v3.33a.35.35,0,0,0,.13.28.42.42,0,0,0,.3.12l6.6,0a.44.44,0,0,0,.31-.11.39.39,0,0,0,.12-.28v-3.34Z"/><path class="cls-8" d="M323.08,343v-4a.39.39,0,0,0-.12-.28.45.45,0,0,0-.31-.11l-6.6,0a.47.47,0,0,0-.31.12.37.37,0,0,0-.12.27v4Z"/><path class="cls-8" d="M332.19,334.77a.41.41,0,0,1-.43.39l-129.59.45a.41.41,0,0,1-.43-.39V306.1a.41.41,0,0,1,.43-.4l129.58-.45a.42.42,0,0,1,.44.4Z"/></g><g id="screen"><path class="cls-9" d="M314.26,280.88a11.6,11.6,0,0,1-11.48,11.31l-57,.25a10.92,10.92,0,0,1-11-11.22l.06-2.84a11.61,11.61,0,0,1,11.48-11.32l57-.24a10.91,10.91,0,0,1,11,11.21Z"/><path class="cls-10" d="M376.34,280.62l.63-2c1-2.94.76-6.21-.84-6.21L173.66,273c-1.7,0-3,3.63-2.9,8.18Z"/></g><g class="cls-6"><path d="M446.29,225l9.59-44.07-.57-.08-7.37-1.15-16.7-2.6L420,149.23l-.54.28h0l-7,3.56-39.6,20.11L365.26,177l16.1,39.75a3.76,3.76,0,0,0,5.31,1.88l2-1a3.74,3.74,0,0,0,3.11,3.22l50.26,7.83,0-.06A4.56,4.56,0,0,0,446.29,225Z"/></g><path class="cls-11" d="M406.27,173.2,398.33,172,388.73,216a3.88,3.88,0,0,0,3.06,4.83l50.26,7.83,0-.06a4.56,4.56,0,0,0,4.22-3.63l9.59-44.07-7.94-1.23"/><polygon class="cls-12" points="398.33 171.96 388.88 215.33 438.49 223.06 447.94 179.69 398.33 171.96"/><path class="cls-13" d="M447.94,179.69l-9.5,43.6a3.61,3.61,0,0,0,2.84,4.48,4.16,4.16,0,0,0,4.54-3.33l9.49-43.6Z"/><path class="cls-14" d="M372.81,173.18,365.26,177l16.1,39.75a3.76,3.76,0,0,0,5.31,1.88l47.78-24.26,0-.06a4.58,4.58,0,0,0,1.64-5.34L420,149.23l-7.55,3.84"/><polygon class="cls-15" points="365.26 177.02 381.1 216.15 428.25 192.2 412.41 153.07 365.26 177.02"/><path class="cls-13" d="M412.41,153.07l15.93,39.34a3.49,3.49,0,0,0,4.93,1.74,4.28,4.28,0,0,0,2.08-5.3l-15.93-39.34Z"/><g id="paper"><path class="cls-16" d="M99.84,236.8l51.65-12.4,11.24,73.75-51.65,12.4Z"/><polygon class="cls-17" points="112.28 286.22 154.15 276.15 154.35 277.45 112.48 287.52 112.28 286.22"/><polygon class="cls-17" points="112.63 288.49 154.5 278.43 154.69 279.73 112.83 289.79 112.63 288.49"/><polygon class="cls-17" points="112.98 290.77 154.84 280.7 155.04 282 113.17 292.06 112.98 290.77"/><polygon class="cls-17" points="113.32 293.04 155.19 282.97 155.39 284.27 113.52 294.34 113.32 293.04"/><polygon class="cls-17" points="113.67 295.31 155.54 285.24 155.73 286.54 113.87 296.61 113.67 295.31"/><polygon class="cls-17" points="114.02 297.58 155.88 287.51 156.08 288.81 114.21 298.88 114.02 297.58"/><polygon class="cls-17" points="114.36 299.85 124.04 297.53 124.24 298.83 114.56 301.15 114.36 299.85"/><path class="cls-18" d="M135.65,256.13a7.06,7.06,0,0,1-1,2.62l5.5,5.28a15.73,15.73,0,0,0,3.35-8.9Z"/><path class="cls-19" d="M129.79,249.16a5.71,5.71,0,0,1,5.75,4.37l7.86-1,0-.27a12.83,12.83,0,0,0-14.77-10.93Z"/><path class="cls-20" d="M124.25,252.5a7,7,0,0,1,3-2.73l-1.2-7.83a15.87,15.87,0,0,0-9.13,8.19Z"/><path class="cls-21" d="M132.85,260.73a6.6,6.6,0,0,1-2.42,1.15,5.74,5.74,0,0,1-7.17-4.78,6.37,6.37,0,0,1,0-2.09L116,252.64a14.89,14.89,0,0,0-.43,6.31,12.86,12.86,0,0,0,16.05,10.69,15.15,15.15,0,0,0,6.72-3.63Z"/><polygon class="cls-17" points="112.28 286.22 114.56 301.15 157.4 290.93 154.15 276.15 112.28 286.22"/></g><g id="screen-2" data-name="screen"><path class="cls-9" d="M231.67,217.3a11.28,11.28,0,0,1,11.16-11l55.37-.24A10.61,10.61,0,0,1,308.9,217l-.06,2.77a11.28,11.28,0,0,1-11.16,11l-55.37.25a10.63,10.63,0,0,1-10.7-10.9Z"/><path class="cls-10" d="M171.32,217.55l-.61,1.91c-1,2.85-.74,6,.82,6l196.81-.57c1.65,0,2.93-3.52,2.82-7.95Z"/></g><g class="cls-6"><path d="M217.36,200.24l129.87-.45a1.62,1.62,0,0,0,1.71-1.49l-.18-43.76a1.63,1.63,0,0,0-1.73-1.48l-129.87.45a1.63,1.63,0,0,0-1.72,1.49l.19,43.76A1.62,1.62,0,0,0,217.36,200.24Z"/></g><g id="keyboard-2" data-name="keyboard"><path class="cls-7" d="M215.63,198.76a1.62,1.62,0,0,0,1.73,1.48l129.87-.45a1.62,1.62,0,0,0,1.71-1.49l-.18-43.76a1.63,1.63,0,0,0-1.73-1.48l-129.87.45a1.63,1.63,0,0,0-1.72,1.49Z"/><path class="cls-8" d="M236.45,156.64a.4.4,0,0,1,.42-.39l6.42,0a.4.4,0,0,1,.42.38v3.07a.4.4,0,0,1-.42.39l-6.41,0a.4.4,0,0,1-.42-.38Z"/><path class="cls-8" d="M218.78,156.7a.41.41,0,0,1,.42-.39l6.42,0a.4.4,0,0,1,.42.38v3.08a.41.41,0,0,1-.42.38l-6.41,0a.4.4,0,0,1-.42-.38Z"/><path class="cls-8" d="M265.26,156.54a.4.4,0,0,1,.42-.39l41.76-.14a.4.4,0,0,1,.42.38l0,6.91a.4.4,0,0,1-.42.38l-41.75.15a.41.41,0,0,1-.43-.38Z"/><path class="cls-8" d="M234.89,159.88l0-3.24a.37.37,0,0,0-.12-.27.46.46,0,0,0-.3-.11l-6.41,0a.42.42,0,0,0-.3.12.36.36,0,0,0-.12.27v3.24Z"/><path class="cls-8" d="M227.64,159.72v3.86a.39.39,0,0,0,.12.27.48.48,0,0,0,.3.11l6.42,0a.42.42,0,0,0,.29-.12.36.36,0,0,0,.12-.27V159.7Z"/><path class="cls-8" d="M218.79,167.71a.39.39,0,0,1,.41-.38l126-.44a.4.4,0,0,1,.42.38v28.31a.4.4,0,0,1-.42.38l-126,.44a.4.4,0,0,1-.42-.38Z"/></g><g class="cls-6"><path d="M132.79,190.53l4.9.92h0l2.2.42c0,.61-.08,1.23-.07,1.85.09,9.66,7.71,16.78,17,15.9s16.75-9.43,16.66-19.1-7.71-16.78-17-15.89a18.73,18.73,0,0,0-15.22,11.7l-2.2-.42h0l-4.91-.92a2.71,2.71,0,0,0-2,.47,3.13,3.13,0,0,0-1.25,1.81,2.85,2.85,0,0,0,.28,2.1A2.43,2.43,0,0,0,132.79,190.53Z"/></g><g id="coffee"><path class="cls-22" d="M130.86,187.27a3.13,3.13,0,0,1,1.25-1.81,2.71,2.71,0,0,1,2-.47l7.82,1.47L140.6,192l-7.81-1.47a2.43,2.43,0,0,1-1.65-1.16A2.85,2.85,0,0,1,130.86,187.27Z"/><path class="cls-23" d="M140.6,192l1.37-5.54-2.91-.55a21.62,21.62,0,0,0-1.37,5.54Z"/><path class="cls-22" d="M139.82,193.72c-.1-9.66,7.36-18.21,16.66-19.09s16.91,6.23,17,15.89-7.37,18.22-16.66,19.1S139.91,203.38,139.82,193.72Z"/><path class="cls-24" d="M142.51,193.47c-.08-8.12,6.19-15.31,14-16s14.21,5.23,14.29,13.35-6.19,15.3-14,16S142.59,201.58,142.51,193.47Z"/><path class="cls-25" d="M166.71,187c.08,8.12-6.18,15.3-14,16a12.8,12.8,0,0,1-7.8-1.68,12.74,12.74,0,0,0,11.88,5.5c7.81-.74,14.08-7.92,14-16a13.44,13.44,0,0,0-6.5-11.67A14,14,0,0,1,166.71,187Z"/></g><g class="cls-6"><path d="M354.4,333.73a6.71,6.71,0,0,0-8.43-4.2l-1.67.55-1.67.56a6.53,6.53,0,0,0-4.12,8.35l5.18,15.06a6.72,6.72,0,0,0,8.43,4.19l1.67-.56,1.67-.55a6.53,6.53,0,0,0,4.12-8.35Z"/></g><g id="mouse"><path class="cls-22" d="M346,329.53a6.71,6.71,0,0,1,8.43,4.2l5.18,15a6.53,6.53,0,0,1-4.12,8.35l-1.67.55-9.49-27.6Z"/><path class="cls-26" d="M342.63,330.64l1.67-.56,9.49,27.6-1.67.56a6.72,6.72,0,0,1-8.43-4.19L338.51,339A6.53,6.53,0,0,1,342.63,330.64Z"/><path class="cls-27" d="M348.68,336.05l.47,1.35a2.19,2.19,0,0,1-1.38,2.78l-1.9-5.53A2.24,2.24,0,0,1,348.68,336.05Z"/><path class="cls-28" d="M345.87,334.65h0l1.9,5.53h0a2.23,2.23,0,0,1-2.81-1.4l-.46-1.35A2.17,2.17,0,0,1,345.87,334.65Z"/></g><g class="cls-6"><path d="M200,187.59a6.71,6.71,0,0,0,8.43,4.2l1.67-.56,1.67-.55a6.53,6.53,0,0,0,4.12-8.35l-5.18-15.06a6.71,6.71,0,0,0-8.43-4.19l-1.67.55-1.67.56a6.53,6.53,0,0,0-4.12,8.35Z"/></g><g id="mouse-2" data-name="mouse"><path class="cls-22" d="M208.46,191.79a6.71,6.71,0,0,1-8.43-4.2l-5.18-15.05a6.53,6.53,0,0,1,4.12-8.35l1.67-.56,9.49,27.6Z"/><path class="cls-26" d="M211.8,190.68l-1.67.55-9.49-27.6,1.67-.55a6.71,6.71,0,0,1,8.43,4.19l5.18,15.06A6.53,6.53,0,0,1,211.8,190.68Z"/><path class="cls-27" d="M205.75,185.27l-.47-1.35a2.2,2.2,0,0,1,1.37-2.79l1.91,5.54A2.24,2.24,0,0,1,205.75,185.27Z"/><path class="cls-28" d="M208.56,186.67h0l-1.91-5.54h0a2.25,2.25,0,0,1,2.82,1.4l.46,1.35A2.18,2.18,0,0,1,208.56,186.67Z"/></g><polygon class="cls-29" points="239.09 361.14 224.51 355.26 226.73 349.66 241.31 355.54 239.09 361.14"/><path class="cls-30" d="M278.91,425.58s-20.66,8.05-34.22,4.35-16.13-42.07-4.51-69c-9.57-3.95-16.61-6.17-16.61-6.17s-18.3,43.51-13.34,63.1,19.39,43.06,19.39,43.06,31.77,10.62,44.8,11.9S278.91,425.58,278.91,425.58Z"/><path d="M238,452.39s-14.44-23.47-19.4-43.06c-3.46-13.68,4.42-39,9.49-53.07-2.84-1-4.53-1.53-4.53-1.53s-18.3,43.51-13.34,63.1,19.39,43.06,19.39,43.06,31.77,10.62,44.8,11.9c3.71.37,5.67-3.3,6.58-8.72C267.07,462.1,238,452.39,238,452.39Z"/><polygon class="cls-29" points="357.84 376.39 373.38 374.52 372.58 368.52 357.05 370.4 357.84 376.39"/><path class="cls-30" d="M303.92,427.82S322,441,336,441s25.8-36.49,21.09-65.62c10.21-1.33,17.56-1.63,17.56-1.63s7.18,46.9-2.37,64.56-29.2,36.59-29.2,36.59-33.31,2-46.24-.21S303.92,427.82,303.92,427.82Z"/><path d="M337,464.47s19.66-18.93,29.2-36.59c6.66-12.33,5.17-38.91,3.67-53.84,3-.23,4.75-.3,4.75-.3s7.18,46.9-2.37,64.56-29.2,36.59-29.2,36.59-33.31,2-46.24-.21c-3.67-.62-4.68-4.68-4.24-10.17C306.53,466.26,337,464.47,337,464.47Z"/><path class="cls-31" d="M368.4,369s3-15.06,3.63-21-1.67-5.68-4.63-10.16-5.13-9-7.47-9.27l-.2.78s-1-2.45-2.84-2.51-1,2.1-.57,3.38c-1.17-2.7-2.48-3.38-3.85-2.86s-1.16,2.91-.43,5c-1-2.33-2.79-2.76-4-2.49s-2.32,2.2-.26,5.52,5.65,13.4,5.65,13.4-5.7-9.29-6-10-3.89,0-1.58,4.49,3.09,10.36,4.73,14.93,5.08,11,7.89,12Z"/><path class="cls-31" d="M229.07,350.91s.72-15.36,1.57-21.28,3-5.06,6.94-8.63,7.15-7.37,9.47-7l0,.81s1.53-2.12,3.35-1.69.47,2.3-.26,3.43c1.78-2.31,3.21-2.63,4.41-1.76s.42,3.11-.8,5c1.54-2,3.37-1.95,4.46-1.37s1.71,2.74-1.09,5.41-8.71,11.49-8.71,11.49,7.77-7.5,8.26-8.13,3.77,1,.45,4.76-5.5,9.22-8.19,13.22-7.58,9.3-10.54,9.53Z"/><path class="cls-30" d="M317.7,424.5c-1.31-1.89-5.65-3.4-9.65-3.36l-41.78.51c-4,.05-8,1.7-8.8,3.69l-5.19,12.26c-.84,2,1.7,3.84,5.64,4.14l22.49,1.68a105.6,105.6,0,0,0,14.34-.09L321.47,441c3.95-.34,6.11-2.17,4.81-4.07Z"/><path class="cls-15" d="M318.83,451.53c-.28-18.91-14.66-34.2-32.12-34.14s-31.39,15.43-31.11,34.35,14.65,34.19,32.11,34.13S319.1,470.44,318.83,451.53Z"/><path class="cls-32" d="M272.06,455.08c-.26-18,12.37-32.81,28.66-34.22a29.63,29.63,0,0,0-14-3.47c-17.46.06-31.39,15.43-31.11,34.35s14.65,34.19,32.11,34.13c.83,0,1.64,0,2.45-.11C279.62,480.2,272.26,468.57,272.06,455.08Z"/><polygon class="cls-29" points="315.45 147.14 330.03 153.02 327.81 158.62 313.23 152.74 315.45 147.14"/><path class="cls-30" d="M275.63,82.69s20.65-8,34.22-4.35,16.13,42.08,4.51,69c9.57,4,16.61,6.18,16.61,6.18s18.3-43.51,13.34-63.11-19.39-43-19.39-43-31.77-10.62-44.81-11.91S275.63,82.69,275.63,82.69Z"/><path d="M316.53,55.89S331,79.36,335.93,99c3.46,13.68-4.42,39-9.49,53.06,2.84,1,4.53,1.54,4.53,1.54s18.3-43.51,13.34-63.11-19.39-43-19.39-43-31.77-10.62-44.81-11.91c-3.7-.36-5.66,3.3-6.57,8.73C287.47,46.18,316.53,55.89,316.53,55.89Z"/><polygon class="cls-29" points="196.7 131.88 181.16 133.76 181.95 139.75 197.49 137.88 196.7 131.88"/><path class="cls-30" d="M250.62,80.46s-18-13.2-32.06-13.17-25.8,36.49-21.09,65.62c-10.21,1.32-17.56,1.63-17.56,1.63s-7.18-46.9,2.37-64.57,29.19-36.59,29.19-36.59,33.32-2,46.25.22S250.62,80.46,250.62,80.46Z"/><path d="M217.53,43.81s-19.66,18.92-29.2,36.59c-6.66,12.33-5.17,38.91-3.67,53.84-3,.23-4.75.3-4.75.3s-7.18-46.9,2.37-64.57,29.19-36.59,29.19-36.59,33.32-2,46.25.22c3.67.61,4.68,4.67,4.24,10.16C248,42,217.53,43.81,217.53,43.81Z"/><path class="cls-31" d="M186.14,139.25s-3,15.05-3.63,21,1.67,5.68,4.63,10.16,5.13,9,7.46,9.27l.21-.79s1,2.46,2.84,2.52,1-2.11.57-3.39c1.17,2.71,2.48,3.39,3.85,2.86s1.16-2.9.43-5c1,2.33,2.79,2.76,4,2.49s2.32-2.21.26-5.52-5.66-13.41-5.66-13.41,5.71,9.3,6,10,3.89,0,1.58-4.48S205.62,154.61,204,150s-5.08-11-7.89-12Z"/><path class="cls-31" d="M325.47,157.37s-.72,15.36-1.57,21.28-3,5.06-6.95,8.62-7.15,7.38-9.47,7v-.82s-1.53,2.13-3.35,1.7-.47-2.31.26-3.43c-1.78,2.31-3.21,2.63-4.41,1.76s-.42-3.12.8-5c-1.54,2-3.37,1.94-4.47,1.37s-1.7-2.74,1.09-5.41S306.11,173,306.11,173s-7.77,7.5-8.26,8.13-3.77-1-.45-4.76,5.5-9.22,8.19-13.22,7.58-9.3,10.54-9.53Z"/><path class="cls-30" d="M236.84,83.78c1.31,1.89,5.65,3.4,9.64,3.35l41.79-.5c4,0,8-1.71,8.8-3.69l5.19-12.26c.84-2-1.7-3.84-5.64-4.14l-22.49-1.69a108.94,108.94,0,0,0-14.34.09l-26.72,2.34c-3.95.34-6.11,2.17-4.81,4.06Z"/><path class="cls-33" d="M235.71,56.75C236,75.66,250.37,91,267.83,90.89s31.38-15.44,31.11-34.35S284.29,22.35,266.83,22.4,235.44,37.84,235.71,56.75Z"/><path class="cls-34" d="M282.48,53.19c.26,18-12.37,32.82-28.66,34.23a29.75,29.75,0,0,0,14,3.47c17.45-.06,31.38-15.44,31.11-34.35S284.29,22.35,266.83,22.4c-.83,0-1.64.05-2.45.12C274.92,28.07,282.28,39.71,282.48,53.19Z"/></g></g></g></svg>