<svg xmlns="http://www.w3.org/2000/svg" viewBox="0 0 539.12 465.72"><defs><style>.cls-1{fill:#f2f2f7;}.cls-2{fill:#4c8eb4;}.cls-2,.cls-3,.cls-4,.cls-5,.cls-6{fill-rule:evenodd;}.cls-3{fill:#609dc1;}.cls-4{fill:#73accd;}.cls-5{fill:#87bbda;}.cls-6{fill:#9acae6;}.cls-7{fill:#fec00f;}.cls-8{fill:#15b0bf;}.cls-9{fill:#fbca47;}.cls-10{fill:#f4aa10;}.cls-11{fill:#e7930f;}.cls-12{fill:#fff;}</style></defs><title>Asset 27</title><g id="Layer_2" data-name="Layer 2"><g id="Layer_1-2" data-name="Layer 1"><path class="cls-1" d="M172.52,82c31,9.86,78.3,35.51,129.1-14.48s109.45-92.66,147.58-50c18.53,20.73,36.13,52.6,29.62,115.82s15.36,152.86,42.53,180.33S574.52,494,356,456.94,189.38,368.17,98.42,335.53s-121.69-114.13-80.34-154S16.19,32.2,172.52,82Z"/><polygon class="cls-2" points="508.26 279.43 464.79 279.45 464.84 319 508.33 318.98 508.26 279.43"/><polygon class="cls-3" points="458.03 262.39 414.55 262.4 414.59 319 458.06 318.99 458.03 262.39"/><polygon class="cls-4" points="407.79 222.75 364.31 222.75 364.31 319.02 407.79 319 407.79 222.75"/><polygon class="cls-5" points="357.49 236.1 314.03 236.12 314.05 319.02 357.51 319.02 357.49 236.1"/><polygon class="cls-6" points="307.23 277.53 263.76 277.53 263.78 319.05 307.25 319.03 307.23 277.53"/><polygon class="cls-4" points="258.25 261.81 214.77 261.82 214.78 318.98 258.25 318.96 258.25 261.81"/><polygon class="cls-5" points="207.96 236.04 164.5 236.05 164.52 318.98 208 318.97 207.96 236.04"/><polygon class="cls-6" points="157.73 181.27 114.26 181.28 114.25 319.01 157.72 318.99 157.73 181.27"/><polygon class="cls-7" points="498.43 182.31 509.99 166.64 366.49 60.73 273.17 124.49 124.21 22.42 113.2 38.47 273.16 148.08 366.05 84.62 498.43 182.31"/><polygon class="cls-7" points="513.92 139.08 498.34 139.08 498.33 173.44 463.97 173.43 463.96 189.01 513.91 189.03 513.92 139.08"/><path class="cls-8" d="M253,132.62a21.43,21.43,0,1,1,21.43,21.43A21.44,21.44,0,0,1,253,132.62Z"/><path class="cls-8" d="M344.52,72.67A21.43,21.43,0,1,1,365.94,94.1,21.42,21.42,0,0,1,344.52,72.67Z"/><polygon class="cls-9" points="279.76 418.08 258.1 436.63 220.91 438.93 193.71 418.08 193.71 362.31 279.76 362.31 279.76 418.08"/><path class="cls-10" d="M279.77,377.38v.73c-.12,6.8-3.67,12-9.65,16-.41.28-.83.55-1.25.81-17.29,10.72-48.53,10.55-65.19-.54-7-4.67-11.27-10.69-9.62-20.41,11.66,21.53,53.84,24.39,74.81,11,4.8-3.08,8.94-6.47,10.89-11.22C279.76,375.31,279.75,376.05,279.77,377.38Z"/><path class="cls-10" d="M279.76,392h0c-.22,6.64-3.76,11.7-9.64,15.7l-1.25.81c-17.29,10.71-48.53,10.55-65.19-.54-7-4.67-11.27-10.69-9.62-20.42,11.66,21.54,53.84,24.4,74.81,11,4.8-3.07,8.94-6.52,10.89-11.27,0,1.45,0,2.15,0,3.38v0Q279.79,391.37,279.76,392Z"/><path class="cls-10" d="M279.75,419.57h0c-.41,5.94-3.45,10.74-8.86,14.61-.65.47-1.33.92-2,1.35-17.72,10.95-49.61,10.6-66.2-1.2-5.94-4.22-8.94-9.14-8.94-14.24a14,14,0,0,1,.84-4.7,37.14,37.14,0,0,0,10,10.39c9.17,6.38,20.54,7.9,32.25,7.84s23-1.48,32.1-7.85a35.37,35.37,0,0,0,10.88-11.14c0,.9,0,1.3,0,2.17h0A21,21,0,0,1,279.75,419.57Z"/><path class="cls-10" d="M279.76,405.84v0c-.31,6.53-3.82,11.51-9.64,15.46-.41.28-.83.55-1.25.81-17.29,10.72-48.53,10.56-65.19-.53-7-4.67-11.27-10.69-9.62-20.42,11.66,21.54,53.84,24.4,74.81,11,4.8-3.08,8.93-6.32,10.89-11.07,0,1.23-.06,1.78,0,2.95C279.78,404.65,279.78,405.25,279.76,405.84Z"/><path class="cls-9" d="M204.6,384.44v51.13l-1.89-1.23c-6-4.16-9.05-9.14-9.05-14.24l.1-48.45Z"/><path class="cls-11" d="M279.75,414.64s0,1.29,0,2.15v3.31c0,5.1-3.06,10.08-9,14.24l-1.85,1.23v-9.79C277.05,420.2,279.75,414.64,279.75,414.64Z"/><path class="cls-11" d="M279.76,404v1.83c-.31,6.53-3.82,11.51-9.64,15.46-.41.28-.83.55-1.25.81v-10c9.57-5.88,10.89-11.07,10.89-11.07S279.7,402.86,279.76,404Z"/><path class="cls-11" d="M279.76,390.66V393c0,5.58-3.76,10.72-9.64,14.72l-1.25.81v-10c4.8-3.07,8.94-6.52,10.89-11.27Z"/><polygon class="cls-9" points="279.76 363.7 258.1 382.25 220.91 384.56 193.71 363.7 193.71 307.93 279.76 307.93 279.76 363.7"/><path class="cls-10" d="M279.77,323v.73c-.12,6.8-3.67,12-9.65,16l-1.25.81c-17.29,10.71-48.53,10.55-65.19-.54-7-4.67-11.27-10.69-9.62-20.42,11.66,21.54,53.84,24.4,74.81,11,4.8-3.07,8.94-6.46,10.89-11.22C279.76,320.93,279.75,321.68,279.77,323Z"/><path class="cls-10" d="M279.76,337.66h0c-.22,6.64-3.76,11.7-9.64,15.69-.41.28-.83.55-1.25.81-17.29,10.72-48.53,10.56-65.19-.53-7-4.67-11.27-10.7-9.62-20.42,11.66,21.54,53.84,24.39,74.81,11,4.8-3.08,8.94-6.52,10.89-11.28,0,1.46,0,2.15,0,3.39v0C279.78,336.77,279.78,337.21,279.76,337.66Z"/><path class="cls-10" d="M279.75,365.2h0c-.41,5.94-3.45,10.74-8.86,14.61-.65.46-1.33.91-2,1.34-17.72,11-49.61,10.61-66.2-1.19-5.94-4.23-8.94-9.14-8.94-14.24a13.93,13.93,0,0,1,.84-4.7,37.09,37.09,0,0,0,10,10.38c9.17,6.38,20.54,7.9,32.25,7.84s23-1.47,32.1-7.84a35.37,35.37,0,0,0,10.88-11.14c0,.89,0,1.3,0,2.17h0A21,21,0,0,1,279.75,365.2Z"/><path class="cls-10" d="M279.76,351.47h0c-.31,6.53-3.82,11.52-9.64,15.47-.41.28-.83.55-1.25.81-17.29,10.72-48.53,10.55-65.19-.54-7-4.67-11.27-10.69-9.62-20.41,11.66,21.53,53.84,24.39,74.81,11,4.8-3.08,8.93-6.32,10.89-11.07,0,1.22-.06,1.78,0,3C279.78,350.27,279.78,350.88,279.76,351.47Z"/><path class="cls-9" d="M204.6,330.07V381.2L202.71,380c-6-4.17-9.05-9.14-9.05-14.24l.1-48.45Z"/><path class="cls-11" d="M279.75,360.27s0,1.28,0,2.15v3.31c0,5.1-3.06,10.07-9,14.24l-1.85,1.23v-9.79C277.05,365.83,279.75,360.27,279.75,360.27Z"/><path class="cls-11" d="M279.75,373.91s0,1.29,0,2.15v3.31c0,5.1-3.06,10.07-9,14.24l-1.85,1.23v-9.79C277.05,379.47,279.75,373.91,279.75,373.91Z"/><path class="cls-11" d="M279.76,349.66v1.82c-.31,6.53-3.82,11.52-9.64,15.47-.41.28-.83.55-1.25.81v-10c9.57-5.89,10.89-11.07,10.89-11.07S279.7,348.49,279.76,349.66Z"/><path class="cls-11" d="M279.76,336.29v2.35c0,5.58-3.76,10.72-9.64,14.71-.41.28-.83.55-1.25.81v-10c4.8-3.08,8.94-6.52,10.89-11.28Z"/><path class="cls-11" d="M279.77,323v.73c-.12,6.8-3.67,12-9.65,16l-1.25.81v-10c9.58-6,10.89-11.22,10.89-11.22S279.75,321.68,279.77,323Z"/><polygon class="cls-9" points="279.76 310.43 258.1 328.21 220.91 330.42 193.71 310.43 193.71 256.94 279.76 256.94 279.76 310.43"/><path class="cls-10" d="M279.77,268.88v.73c-.12,6.79-3.67,11.95-9.65,16-.41.28-.83.55-1.25.81-17.29,10.72-48.53,10.56-65.19-.53-7-4.68-11.27-10.7-9.62-20.42,11.66,21.54,53.84,24.4,74.81,11,4.8-3.07,8.94-6.46,10.89-11.22C279.76,266.8,279.75,267.54,279.77,268.88Z"/><path class="cls-10" d="M279.76,283.52h0c-.22,6.64-3.76,11.69-9.64,15.69-.41.28-.83.55-1.25.81-17.29,10.72-48.53,10.55-65.19-.54-7-4.67-11.27-10.69-9.62-20.41,11.66,21.53,53.84,24.39,74.81,11,4.8-3.08,8.94-6.53,10.89-11.28,0,1.45,0,2.15,0,3.39v0C279.78,282.63,279.78,283.08,279.76,283.52Z"/><path class="cls-10" d="M279.75,311.07h0c-.41,5.94-3.45,10.74-8.86,14.61-.65.47-1.33.92-2,1.35-17.72,11-49.61,10.61-66.2-1.2-5.94-4.22-8.94-9.14-8.94-14.24a14,14,0,0,1,.84-4.7,37.14,37.14,0,0,0,10,10.39c9.17,6.38,20.54,7.9,32.25,7.84s23-1.47,32.1-7.85a35.37,35.37,0,0,0,10.88-11.14c0,.9,0,1.3,0,2.17h0A21.18,21.18,0,0,1,279.75,311.07Z"/><path class="cls-10" d="M279.76,297.33v0c-.31,6.53-3.82,11.52-9.64,15.46-.41.28-.83.55-1.25.82-17.29,10.71-48.53,10.55-65.19-.54-7-4.67-11.27-10.69-9.62-20.42,11.66,21.54,53.84,24.4,74.81,11,4.8-3.07,8.93-6.31,10.89-11.07,0,1.23-.06,1.79,0,2.95C279.78,296.14,279.78,296.74,279.76,297.33Z"/><path class="cls-9" d="M204.6,275.93v51.14l-1.89-1.24c-6-4.16-9.05-9.14-9.05-14.24l.1-48.44Z"/><path class="cls-11" d="M279.75,306.13s0,1.29,0,2.15v3.31c0,5.1-3.06,10.08-9,14.24l-1.85,1.24v-9.8C277.05,311.7,279.75,306.13,279.75,306.13Z"/><path class="cls-11" d="M279.76,295.52v1.83c-.31,6.53-3.82,11.52-9.64,15.46-.41.28-.83.55-1.25.82v-10c9.57-5.88,10.89-11.07,10.89-11.07S279.7,294.36,279.76,295.52Z"/><path class="cls-11" d="M279.76,282.16v2.34c0,5.58-3.76,10.72-9.64,14.72-.41.28-.83.55-1.25.81v-10c4.8-3.08,8.94-6.53,10.89-11.28Z"/><path class="cls-11" d="M279.77,268.88v.73c-.12,6.79-3.67,11.95-9.65,16-.41.28-.83.55-1.25.81v-10c9.58-6.05,10.89-11.22,10.89-11.22S279.75,267.54,279.77,268.88Z"/><polygon class="cls-9" points="279.76 256.88 258.1 273.79 220.91 275.88 193.71 256.88 193.71 206.03 279.76 206.03 279.76 256.88"/><path class="cls-10" d="M279.77,214.34v.73c-.12,6.8-3.67,12-9.65,16-.41.28-.83.55-1.25.82-17.29,10.71-48.53,10.55-65.19-.54-7-4.67-11.27-10.69-9.62-20.42,11.66,21.54,53.84,24.4,74.81,11,4.8-3.07,8.94-6.46,10.89-11.22C279.76,212.26,279.75,213,279.77,214.34Z"/><path class="cls-10" d="M279.76,229h0c-.22,6.64-3.76,11.7-9.64,15.69-.41.28-.83.55-1.25.81-17.29,10.72-48.53,10.55-65.19-.54-7-4.67-11.27-10.69-9.62-20.41,11.66,21.54,53.84,24.39,74.81,11,4.8-3.08,8.94-6.52,10.89-11.28,0,1.46,0,2.15,0,3.39v0C279.78,228.1,279.78,228.54,279.76,229Z"/><path class="cls-10" d="M279.75,256.53h0c-.41,5.94-3.45,10.74-8.86,14.6-.65.47-1.33.92-2,1.35-17.72,11-49.61,10.61-66.2-1.19-5.94-4.23-8.94-9.15-8.94-14.24a14,14,0,0,1,.84-4.71,37.14,37.14,0,0,0,10,10.39c9.17,6.38,20.54,7.9,32.25,7.84s23-1.47,32.1-7.85a35.44,35.44,0,0,0,10.88-11.13c0,.89,0,1.29,0,2.17h0A21,21,0,0,1,279.75,256.53Z"/><path class="cls-10" d="M279.76,242.8h0c-.31,6.53-3.82,11.52-9.64,15.47-.41.28-.83.55-1.25.81-17.29,10.72-48.53,10.55-65.19-.54-7-4.67-11.27-10.69-9.62-20.41,11.66,21.53,53.84,24.39,74.81,11,4.8-3.08,8.93-6.32,10.89-11.08,0,1.23-.06,1.79,0,3C279.78,241.6,279.78,242.21,279.76,242.8Z"/><path class="cls-10" d="M280.24,202.71c0,13.14-19.47,23.8-43.48,23.8s-43.49-10.66-43.49-23.8,19.48-23.8,43.49-23.8S280.24,189.56,280.24,202.71Z"/><path class="cls-12" d="M236.76,220.19c-9.65,0-18.73-1.83-25.58-5.15-7.06-3.43-11-8.06-11-13s3.89-9.61,11-13c6.85-3.32,15.93-5.15,25.58-5.15s18.73,1.83,25.58,5.15c7.06,3.42,11,8.05,11,13s-3.89,9.61-11,13C255.49,218.36,246.41,220.19,236.76,220.19Zm0-34.55c-9.37,0-18.17,1.77-24.77,5-6.4,3.1-9.92,7.15-9.92,11.39s3.52,8.3,9.92,11.4c6.6,3.2,15.4,5,24.77,5s18.17-1.76,24.77-5c6.39-3.1,9.92-7.15,9.92-11.4s-3.53-8.29-9.92-11.39C254.93,187.41,246.13,185.64,236.76,185.64Z"/><path class="cls-9" d="M204.6,221.4v51.13l-1.89-1.23c-6-4.17-9.05-9.15-9.05-14.24l.1-48.45Z"/><path class="cls-11" d="M279.75,251.6s0,1.28,0,2.14v3.32c0,5.09-3.06,10.07-9,14.24l-1.85,1.23v-9.8C277.05,257.16,279.75,251.6,279.75,251.6Z"/><path class="cls-11" d="M279.76,241v1.82c-.31,6.53-3.82,11.52-9.64,15.47-.41.28-.83.55-1.25.81v-10c9.57-5.89,10.89-11.08,10.89-11.08S279.7,239.82,279.76,241Z"/><path class="cls-11" d="M279.76,227.62V230c0,5.57-3.76,10.72-9.64,14.71-.41.28-.83.55-1.25.81v-10c4.8-3.08,8.94-6.52,10.89-11.28Z"/><path class="cls-11" d="M279.77,214.34v.73c-.12,6.8-3.67,12-9.65,16-.41.28-.83.55-1.25.82v-10c9.58-6,10.89-11.22,10.89-11.22S279.75,213,279.77,214.34Z"/><polygon class="cls-9" points="214.73 416.42 193.07 434.21 155.89 436.42 128.68 416.42 128.68 362.94 214.73 362.94 214.73 416.42"/><path class="cls-10" d="M214.75,374.87v.73c-.12,6.8-3.67,12-9.66,16-.4.28-.82.55-1.25.82-17.29,10.71-48.52,10.55-65.18-.54-7-4.67-11.27-10.69-9.62-20.42,11.66,21.54,53.84,24.4,74.8,11,4.8-3.07,8.94-6.46,10.9-11.22C214.73,372.79,214.72,373.54,214.75,374.87Z"/><path class="cls-10" d="M214.74,389.52h0c-.23,6.64-3.76,11.7-9.65,15.69-.4.28-.82.55-1.25.81-17.29,10.72-48.52,10.56-65.18-.53-7-4.67-11.27-10.7-9.62-20.42,11.66,21.54,53.84,24.39,74.8,11,4.8-3.08,8.94-6.52,10.89-11.28,0,1.46,0,2.15,0,3.39v0C214.75,388.63,214.75,389.07,214.74,389.52Z"/><path class="cls-10" d="M214.72,417.06h0c-.4,5.94-3.45,10.74-8.85,14.61-.66.46-1.33.91-2,1.34-17.71,11-49.61,10.61-66.2-1.19-5.93-4.23-8.94-9.15-8.94-14.24a13.93,13.93,0,0,1,.84-4.7,37.26,37.26,0,0,0,10,10.38c9.17,6.38,20.53,7.9,32.24,7.84s23-1.47,32.1-7.84a35.27,35.27,0,0,0,10.88-11.14c0,.89,0,1.3,0,2.17h0A21,21,0,0,1,214.72,417.06Z"/><path class="cls-10" d="M214.73,403.33h0c-.3,6.53-3.82,11.52-9.64,15.47-.4.28-.82.55-1.25.81-17.29,10.72-48.52,10.55-65.18-.54-7-4.67-11.27-10.69-9.62-20.41,11.66,21.53,53.84,24.39,74.8,11,4.8-3.08,8.94-6.32,10.89-11.07,0,1.22,0,1.78,0,2.95C214.76,402.13,214.76,402.74,214.73,403.33Z"/><path class="cls-9" d="M139.55,381.93v51.13l-1.88-1.23c-6-4.17-9-9.15-9-14.24l.09-48.45Z"/><path class="cls-11" d="M214.72,412.13s0,1.28,0,2.15v3.31c0,5.09-3.05,10.07-9,14.24l-1.86,1.23v-9.79C212,417.69,214.72,412.13,214.72,412.13Z"/><path class="cls-11" d="M214.73,401.52v1.82c-.3,6.53-3.82,11.52-9.64,15.47-.4.28-.82.55-1.25.81v-10c9.57-5.89,10.89-11.07,10.89-11.07S214.68,400.35,214.73,401.52Z"/><path class="cls-11" d="M214.74,388.15v2.35c0,5.58-3.75,10.72-9.64,14.71-.4.28-.82.55-1.25.81V396c4.8-3.08,8.94-6.52,10.89-11.28C214.73,386.14,214.73,386.91,214.74,388.15Z"/><path class="cls-11" d="M214.75,374.87v.73c-.12,6.8-3.67,12-9.66,16-.4.28-.82.55-1.25.82v-10c9.58-6,10.9-11.22,10.9-11.22S214.72,373.54,214.75,374.87Z"/><polygon class="cls-9" points="214.73 362.87 193.07 379.78 155.89 381.88 128.68 362.87 128.68 312.02 214.73 312.02 214.73 362.87"/><path class="cls-10" d="M214.75,320.33v.73c-.12,6.8-3.67,12-9.66,16-.4.28-.82.55-1.25.81-17.29,10.72-48.52,10.55-65.18-.54-7-4.67-11.27-10.69-9.62-20.41,11.66,21.53,53.84,24.39,74.8,11,4.8-3.08,8.94-6.47,10.9-11.22C214.73,318.25,214.72,319,214.75,320.33Z"/><path class="cls-10" d="M214.74,335h0c-.23,6.64-3.76,11.7-9.65,15.69-.4.28-.82.55-1.25.82C186.55,362.2,155.32,362,138.66,351c-7-4.67-11.27-10.69-9.62-20.42,11.66,21.54,53.84,24.4,74.8,11,4.8-3.07,8.94-6.52,10.89-11.27,0,1.45,0,2.15,0,3.38v0Q214.76,334.32,214.74,335Z"/><path class="cls-10" d="M214.72,362.52h0c-.4,5.94-3.45,10.74-8.85,14.61-.66.46-1.33.91-2,1.35-17.71,10.95-49.61,10.6-66.2-1.2-5.93-4.22-8.94-9.14-8.94-14.24a13.93,13.93,0,0,1,.84-4.7,37.3,37.3,0,0,0,10,10.39c9.17,6.38,20.53,7.9,32.24,7.84s23-1.48,32.1-7.85a35.27,35.27,0,0,0,10.88-11.14c0,.9,0,1.3,0,2.17h0A21,21,0,0,1,214.72,362.52Z"/><path class="cls-10" d="M214.73,348.79v0c-.3,6.52-3.82,11.51-9.64,15.46-.4.28-.82.55-1.25.81-17.29,10.72-48.52,10.56-65.18-.53-7-4.68-11.27-10.7-9.62-20.42,11.66,21.54,53.84,24.39,74.8,11,4.8-3.08,8.94-6.32,10.89-11.07,0,1.22,0,1.78,0,3C214.76,347.6,214.76,348.2,214.73,348.79Z"/><path class="cls-10" d="M215.21,308.7c0,13.14-19.46,23.8-43.47,23.8s-43.49-10.66-43.49-23.8,19.47-23.8,43.49-23.8S215.21,295.56,215.21,308.7Z"/><path class="cls-12" d="M171.74,326.18c-9.65,0-18.74-1.83-25.59-5.15-7.06-3.42-10.94-8-10.94-13s3.88-9.61,10.94-13c6.85-3.33,15.94-5.16,25.59-5.16s18.73,1.83,25.58,5.16c7.06,3.42,10.94,8,10.94,13s-3.88,9.61-10.94,13C190.47,324.35,181.38,326.18,171.74,326.18Zm0-34.54c-9.38,0-18.18,1.76-24.78,5-6.39,3.1-9.91,7.15-9.91,11.4s3.52,8.29,9.91,11.39c6.6,3.2,15.4,5,24.78,5s18.17-1.77,24.77-5c6.39-3.1,9.91-7.15,9.91-11.39s-3.52-8.3-9.91-11.4C189.91,293.4,181.11,291.64,171.74,291.64Z"/><path class="cls-9" d="M139.55,327.39v51.13l-1.88-1.23c-6-4.17-9-9.14-9-14.24l.09-48.45Z"/><path class="cls-11" d="M214.72,357.59s0,1.29,0,2.15v3.31c0,5.1-3.05,10.07-9,14.24l-1.86,1.23v-9.79C212,363.15,214.72,357.59,214.72,357.59Z"/><path class="cls-11" d="M214.73,347v1.83c-.3,6.52-3.82,11.51-9.64,15.46-.4.28-.82.55-1.25.81v-10c9.57-5.88,10.89-11.07,10.89-11.07S214.68,345.81,214.73,347Z"/><path class="cls-11" d="M214.74,333.61V336c0,5.58-3.75,10.72-9.64,14.71-.4.28-.82.55-1.25.82v-10c4.8-3.07,8.94-6.52,10.89-11.27C214.73,331.6,214.73,332.37,214.74,333.61Z"/><path class="cls-11" d="M214.75,320.33v.73c-.12,6.8-3.67,12-9.66,16-.4.28-.82.55-1.25.81v-10c9.58-6.05,10.9-11.22,10.9-11.22S214.72,319,214.75,320.33Z"/><polygon class="cls-9" points="143.51 417.18 121.86 434.09 84.67 436.19 57.46 417.18 57.46 366.33 143.51 366.33 143.51 417.18"/><path class="cls-10" d="M143.53,374.64v.73c-.12,6.8-3.67,12-9.65,16l-1.26.81c-17.29,10.71-48.52,10.55-65.18-.54-7-4.67-11.27-10.69-9.62-20.42,11.66,21.54,53.84,24.4,74.8,11,4.8-3.07,8.94-6.46,10.9-11.21C143.52,372.56,143.51,373.31,143.53,374.64Z"/><path class="cls-10" d="M143.52,389.29h0c-.23,6.64-3.76,11.7-9.64,15.69q-.62.42-1.26.81c-17.29,10.72-48.52,10.56-65.18-.53-7-4.67-11.27-10.69-9.62-20.42,11.66,21.54,53.84,24.39,74.8,11,4.8-3.08,8.94-6.52,10.89-11.28,0,1.46,0,2.15,0,3.39v0Q143.55,388.63,143.52,389.29Z"/><path class="cls-10" d="M143.5,416.83h0c-.4,5.94-3.45,10.74-8.85,14.61-.65.46-1.33.91-2,1.34-17.71,11-49.6,10.61-66.2-1.19-5.93-4.23-8.94-9.14-8.94-14.24a13.7,13.7,0,0,1,.85-4.7,37,37,0,0,0,10,10.38c9.17,6.38,20.54,7.9,32.24,7.84s23-1.47,32.1-7.84a35.4,35.4,0,0,0,10.89-11.14c0,.89,0,1.3,0,2.17h0A22.9,22.9,0,0,1,143.5,416.83Z"/><path class="cls-10" d="M143.51,403.1h0c-.3,6.53-3.82,11.52-9.63,15.47q-.62.42-1.26.81c-17.29,10.72-48.52,10.55-65.18-.54-7-4.67-11.27-10.69-9.62-20.41,11.66,21.53,53.84,24.39,74.8,11,4.8-3.08,8.94-6.32,10.89-11.07,0,1.22,0,1.78,0,3C143.54,401.9,143.54,402.51,143.51,403.1Z"/><path class="cls-10" d="M144,363c0,13.14-19.46,23.8-43.47,23.8S57,376.15,57,363s19.48-23.8,43.49-23.8S144,349.86,144,363Z"/><path class="cls-12" d="M100.52,380.49c-9.65,0-18.74-1.83-25.59-5.15-7.05-3.43-10.94-8.06-10.94-13s3.89-9.6,10.94-13c6.85-3.32,15.94-5.15,25.59-5.15s18.73,1.83,25.58,5.15c7.06,3.43,10.94,8.05,10.94,13s-3.88,9.61-10.94,13C119.25,378.66,110.17,380.49,100.52,380.49Zm0-34.55c-9.38,0-18.17,1.77-24.78,5-6.39,3.1-9.91,7.15-9.91,11.39s3.52,8.3,9.91,11.4c6.61,3.2,15.4,5,24.78,5s18.17-1.77,24.77-5c6.39-3.1,9.91-7.15,9.91-11.4s-3.52-8.29-9.91-11.39C118.69,347.71,109.89,345.94,100.52,345.94Z"/><path class="cls-9" d="M68.18,381.7v51.13l-1.81-1.23c-6-4.17-9-9.14-9-14.24l0-48.45Z"/><path class="cls-11" d="M143.51,411.9v5.46c0,5.1-3.05,10.07-9,14.24l-1.86,1.23V423C140.81,417.46,143.51,411.9,143.51,411.9Z"/><path class="cls-11" d="M143.51,401.29v1.82c-.3,6.53-3.82,11.52-9.63,15.47q-.62.42-1.26.81v-10c9.57-5.89,10.89-11.07,10.89-11.07S143.46,400.12,143.51,401.29Z"/><path class="cls-11" d="M143.52,387.92v2.35c0,5.58-3.75,10.72-9.63,14.71q-.62.42-1.26.81v-10c4.8-3.08,8.94-6.52,10.89-11.28C143.51,385.91,143.51,386.68,143.52,387.92Z"/><path class="cls-11" d="M143.53,374.64v.73c-.12,6.8-3.67,12-9.65,16l-1.26.81v-10c9.58-6,10.9-11.21,10.9-11.21S143.51,373.31,143.53,374.64Z"/><polygon class="cls-9" points="341.5 416.49 319.85 434.28 282.66 436.49 255.45 416.49 255.45 363.01 341.5 363.01 341.5 416.49"/><path class="cls-10" d="M341.52,374.94v.73c-.12,6.8-3.67,12-9.65,16q-.62.42-1.26.81c-17.29,10.72-48.52,10.55-65.18-.54-7-4.67-11.27-10.69-9.62-20.41,11.66,21.53,53.84,24.39,74.8,11,4.8-3.08,8.94-6.47,10.9-11.22C341.51,372.86,341.5,373.61,341.52,374.94Z"/><path class="cls-10" d="M341.51,389.59h0c-.23,6.64-3.76,11.7-9.64,15.69-.41.28-.83.55-1.26.82-17.29,10.71-48.52,10.55-65.18-.54-7-4.67-11.27-10.69-9.62-20.42,11.66,21.54,53.84,24.4,74.8,11,4.8-3.07,8.94-6.52,10.89-11.27,0,1.45,0,2.15,0,3.38v0Q341.54,388.93,341.51,389.59Z"/><path class="cls-10" d="M341.49,417.13h0c-.4,5.94-3.45,10.74-8.85,14.61-.65.46-1.33.91-2,1.35-17.71,10.95-49.6,10.6-66.2-1.2-5.93-4.22-8.94-9.14-8.94-14.24a13.7,13.7,0,0,1,.85-4.7,37.14,37.14,0,0,0,9.95,10.39c9.17,6.38,20.54,7.9,32.24,7.84s23-1.48,32.1-7.85A35.4,35.4,0,0,0,341.5,412.2c0,.9,0,1.3,0,2.17h0A22.9,22.9,0,0,1,341.49,417.13Z"/><path class="cls-10" d="M341.5,403.4v0c-.3,6.52-3.82,11.51-9.63,15.46q-.62.42-1.26.81c-17.29,10.72-48.52,10.55-65.18-.54-7-4.67-11.27-10.69-9.62-20.41,11.66,21.53,53.84,24.39,74.8,11,4.8-3.08,8.94-6.32,10.89-11.07,0,1.22-.05,1.78,0,2.95C341.53,402.21,341.53,402.81,341.5,403.4Z"/><path class="cls-9" d="M266.33,382v51.13l-1.89-1.23c-6-4.17-9-9.14-9-14.24l.09-48.45Z"/><path class="cls-11" d="M341.5,412.2v5.46c0,5.1-3.05,10.07-9,14.24l-1.86,1.23v-9.79C338.8,417.76,341.5,412.2,341.5,412.2Z"/><path class="cls-11" d="M341.5,401.59v1.83c-.3,6.52-3.82,11.51-9.63,15.46q-.62.42-1.26.81v-10c9.57-5.88,10.89-11.07,10.89-11.07S341.45,400.42,341.5,401.59Z"/><path class="cls-11" d="M341.51,388.22v2.35c0,5.58-3.75,10.72-9.63,14.71-.41.28-.83.55-1.26.82v-10c4.8-3.07,8.94-6.52,10.89-11.27C341.5,386.21,341.5,387,341.51,388.22Z"/><path class="cls-11" d="M341.52,374.94v.73c-.12,6.8-3.67,12-9.65,16q-.62.42-1.26.81v-10c9.58-6,10.9-11.22,10.9-11.22S341.5,373.61,341.52,374.94Z"/><polygon class="cls-9" points="341.5 362.94 319.85 379.85 282.66 381.95 255.45 362.94 255.45 312.09 341.5 312.09 341.5 362.94"/><path class="cls-10" d="M341.52,320.41v.73c-.12,6.79-3.67,11.95-9.65,16q-.62.42-1.26.81c-17.29,10.72-48.52,10.55-65.18-.54-7-4.67-11.27-10.69-9.62-20.41,11.66,21.53,53.84,24.39,74.8,11,4.8-3.08,8.94-6.46,10.9-11.22C341.51,318.33,341.5,319.07,341.52,320.41Z"/><path class="cls-10" d="M341.51,335.05h0c-.23,6.64-3.76,11.7-9.64,15.7l-1.26.81c-17.29,10.71-48.52,10.55-65.18-.54-7-4.67-11.27-10.69-9.62-20.41,11.66,21.53,53.84,24.39,74.8,11,4.8-3.07,8.94-6.52,10.89-11.27,0,1.45,0,2.15,0,3.39h0Q341.54,334.39,341.51,335.05Z"/><path class="cls-10" d="M341.49,362.6h0c-.4,5.94-3.45,10.74-8.85,14.61-.65.47-1.33.92-2,1.35-17.71,11-49.6,10.6-66.2-1.2-5.93-4.22-8.94-9.14-8.94-14.24a13.79,13.79,0,0,1,.85-4.7,37.14,37.14,0,0,0,9.95,10.39c9.17,6.38,20.54,7.9,32.24,7.84s23-1.47,32.1-7.85a35.4,35.4,0,0,0,10.89-11.14c0,.9,0,1.3,0,2.17h0A23.05,23.05,0,0,1,341.49,362.6Z"/><path class="cls-10" d="M341.5,348.86v0c-.3,6.53-3.82,11.52-9.63,15.46q-.62.42-1.26.81c-17.29,10.72-48.52,10.56-65.18-.53-7-4.67-11.27-10.69-9.62-20.42,11.66,21.54,53.84,24.4,74.8,11,4.8-3.07,8.94-6.31,10.89-11.07,0,1.23-.05,1.79,0,2.95C341.53,347.67,341.53,348.27,341.5,348.86Z"/><path class="cls-10" d="M342,308.77c0,13.15-19.46,23.8-43.47,23.8S255,321.92,255,308.77,274.5,285,298.51,285,342,295.63,342,308.77Z"/><path class="cls-12" d="M298.51,326.25c-9.65,0-18.74-1.83-25.59-5.15-7.05-3.42-10.94-8.05-10.94-13s3.89-9.61,10.94-13c6.85-3.33,15.94-5.15,25.59-5.15s18.73,1.82,25.58,5.15c7.06,3.42,10.94,8,10.94,13s-3.88,9.61-10.94,13C317.24,324.42,308.16,326.25,298.51,326.25Zm0-34.54c-9.38,0-18.17,1.76-24.78,5-6.39,3.11-9.91,7.15-9.91,11.4s3.52,8.29,9.91,11.39c6.61,3.21,15.4,5,24.78,5s18.17-1.76,24.77-5c6.39-3.1,9.91-7.14,9.91-11.39s-3.52-8.29-9.91-11.4C316.68,293.47,307.88,291.71,298.51,291.71Z"/><path class="cls-9" d="M266.33,327.46V378.6l-1.89-1.24c-6-4.16-9-9.14-9-14.24l.09-48.45Z"/><path class="cls-11" d="M341.5,357.66v5.46c0,5.1-3.05,10.08-9,14.24l-1.86,1.24v-9.8C338.8,363.23,341.5,357.66,341.5,357.66Z"/><path class="cls-11" d="M341.5,347.05v1.83c-.3,6.53-3.82,11.52-9.63,15.46q-.62.42-1.26.81v-10c9.57-5.88,10.89-11.07,10.89-11.07S341.45,345.89,341.5,347.05Z"/><path class="cls-11" d="M341.51,333.69h0V336c0,5.58-3.75,10.72-9.63,14.72l-1.26.81v-10c4.8-3.07,8.94-6.52,10.89-11.27C341.5,331.67,341.5,332.44,341.51,333.69Z"/><path class="cls-11" d="M341.52,320.41v.73c-.12,6.79-3.67,11.95-9.65,16q-.62.42-1.26.81V328c9.58-6.05,10.9-11.22,10.9-11.22S341.5,319.07,341.52,320.41Z"/><polygon class="cls-9" points="186.27 446.5 162.04 457.17 126.91 449.32 105.35 426.79 107.79 416.94 188.64 436.92 186.27 446.5"/><path class="cls-10" d="M186.72,444.73l-.17.69c-1.69,6.35-6.22,10.38-12.78,12.8-.45.17-.91.32-1.37.47-18.73,6.06-48-1.35-61.12-15.64-5.5-6-8.1-12.66-4.3-21.41,6,22.94,44.93,35.42,67.74,27.67,5.22-1.77,9.9-4,12.84-8C187.19,442.77,187,443.47,186.72,444.73Z"/><path class="cls-10" d="M189.86,433.91c-3.05,12.35-23.81,17.84-46.37,12.26s-38.39-20.1-35.34-32.45,23.83-17.84,46.39-12.27S192.91,421.56,189.86,433.91Z"/><path class="cls-12" d="M145,440.24c-9.06-2.24-17.17-6.07-22.84-10.78-5.83-4.86-8.41-10.11-7.26-14.79s5.89-8.12,13.31-9.7c7.21-1.53,16.17-1.14,25.24,1.1s17.17,6.07,22.84,10.78c5.83,4.85,8.41,10.1,7.25,14.78s-5.88,8.13-13.3,9.71C163,442.87,154,442.48,145,440.24Zm8-32.46c-8.8-2.18-17.48-2.56-24.42-1.09-6.73,1.43-11,4.42-12,8.41s1.38,8.61,6.66,13c5.46,4.54,13.32,8.24,22.13,10.41s17.48,2.57,24.42,1.09c6.73-1.43,11-4.41,12-8.4s-1.38-8.61-6.66-13C169.64,413.66,161.78,410,153,407.78Z"/><path class="cls-11" d="M186.72,444.73l-.17.69c-1.69,6.35-6.22,10.38-12.78,12.8-.45.17-.91.32-1.37.47l2.32-9.38c10.4-3.45,12.84-8,12.84-8S187,443.47,186.72,444.73Z"/><polygon class="cls-9" points="273.04 389.04 278.91 414.86 264.52 447.86 238.3 464.73 229.09 460.46 264.09 384.89 273.04 389.04"/><path class="cls-10" d="M271.4,388.26l.64.3c5.92,2.87,9,8.09,10.13,15,.08.47.15.95.21,1.43,2.38,19.54-10.47,46.9-27,57-6.95,4.27-14,5.55-21.84.15,23.66-1.48,43.32-37.36,40.06-61.23-.75-5.47-2-10.48-5.42-14.13C269.57,387.43,270.22,387.74,271.4,388.26Z"/><path class="cls-10" d="M261.37,383.12c11.54,5.35,13,26.78,3.21,47.86s-27,33.86-38.59,28.51-13-26.78-3.21-47.87S249.83,377.78,261.37,383.12Z"/><path class="cls-12" d="M259,428.41c-3.93,8.48-9.23,15.71-14.94,20.37-5.87,4.81-11.52,6.34-15.89,4.31s-6.86-7.32-7-14.91c-.14-7.36,1.95-16.09,5.88-24.56s9.22-15.71,14.93-20.37c5.88-4.81,11.52-6.34,15.89-4.31s6.86,7.32,7,14.91C265.05,411.22,263,419.94,259,428.41ZM228.7,414.36c-3.81,8.23-5.84,16.68-5.72,23.78.13,6.87,2.25,11.61,6,13.34s8.71.28,14-4.07c5.49-4.5,10.62-11.51,14.43-19.74s5.85-16.67,5.72-23.77c-.12-6.88-2.24-11.62-6-13.34s-8.72-.29-14,4.07C237.64,399.12,232.51,406.13,228.7,414.36Z"/><path class="cls-11" d="M271.4,388.26l.64.3c5.92,2.87,9,8.09,10.13,15,.08.47.15.95.21,1.43l-8.77-4.06c-1.41-10.88-5.42-14.13-5.42-14.13S270.22,387.74,271.4,388.26Z"/><path class="cls-12" d="M170.7,422.77a8.76,8.76,0,0,1-.06,6.2c-1.39,3.33-4.94,5.43-9.94,5.57a24.4,24.4,0,0,1-8.17-1.19l-.93,2.2-4-1.68.78-1.87-1-.41c-.57-.23-1.12-.5-1.69-.74l-.8,1.9-4-1.69.95-2.27a26.77,26.77,0,0,1-6.79-5.6c-2.83-3.46-3.85-7.08-2.51-10.27a9.4,9.4,0,0,1,3.83-4.38l6.08,3.66a7.44,7.44,0,0,0-2.94,3.2c-.68,1.63-.4,3.5,1.32,5.46a13.2,13.2,0,0,0,3.23,2.63l3.54-8.45,4,1.69-3.75,9c.55.27,1.18.53,1.74.77l.91.38,3.77-9,4,1.69-3.57,8.51a13.36,13.36,0,0,0,4.45.55,5.27,5.27,0,0,0,4.73-3.17,7.08,7.08,0,0,0,.14-4.48Z"/><path class="cls-12" d="M240.05,441.93a7.62,7.62,0,0,1-5.94-.09c-3-1.51-4.52-5.33-4-10.7a31.32,31.32,0,0,1,2.28-8.78l-2-1,2.18-4.32,1.68.85.53-1c.3-.6.64-1.2.95-1.81l-1.72-.86,2.18-4.32,2,1a34.19,34.19,0,0,1,6.31-7.27c3.71-3,7.32-4.1,10.19-2.65a7.88,7.88,0,0,1,3.67,4.14l-4.36,6.5a6.26,6.26,0,0,0-2.65-3.17c-1.47-.74-3.31-.44-5.42,1.39a17.3,17.3,0,0,0-3,3.47l7.61,3.83-2.18,4.32-8.07-4.06c-.34.59-.67,1.26-1,1.87l-.49,1,8.1,4.08-2.18,4.33-7.67-3.87a16.59,16.59,0,0,0-1.14,4.77c-.13,2.68.85,4.32,2.38,5.09a6,6,0,0,0,4.28.17Z"/><path class="cls-12" d="M319,297.74a9.86,9.86,0,0,1,2.59,6.43c0,4-2.72,7.74-7.77,10a26.58,26.58,0,0,1-8.86,2.31v2.68h-4.84v-2.27h-1.16c-.68,0-1.36,0-2,0v2.31h-4.84v-2.76a29.64,29.64,0,0,1-9.34-2.84c-4.36-2.35-6.95-5.65-6.95-9.52a10.62,10.62,0,0,1,2-6.18l7.77,1.16a8.36,8.36,0,0,0-1.63,4.57c0,2,1.09,3.79,3.68,5.07a15.07,15.07,0,0,0,4.43,1.31V299.76h4.84v10.87c.68,0,1.43,0,2.11,0h1.09V299.76h4.84V310.1a14.77,14.77,0,0,0,4.77-1.36,5.9,5.9,0,0,0,3.48-5.32,8,8,0,0,0-1.77-4.69Z"/><path class="cls-12" d="M257.55,192.09a9.91,9.91,0,0,1,2.59,6.43c0,4-2.73,7.74-7.77,10a26.84,26.84,0,0,1-8.86,2.3v2.68h-4.84v-2.26h-1.16c-.68,0-1.36,0-2,0v2.31h-4.84v-2.76a29.13,29.13,0,0,1-9.34-2.84c-4.36-2.35-6.95-5.64-6.95-9.51a10.57,10.57,0,0,1,2-6.18l7.77,1.15a8.36,8.36,0,0,0-1.63,4.57c0,2,1.09,3.79,3.68,5.07a15,15,0,0,0,4.43,1.32V194.11h4.84V205c.68.05,1.43.05,2.11.05h1.09V194.11h4.84v10.34a14.6,14.6,0,0,0,4.77-1.36,5.9,5.9,0,0,0,3.48-5.31,8,8,0,0,0-1.78-4.7Z"/><path class="cls-12" d="M191.49,298a9.91,9.91,0,0,1,2.59,6.43c0,4-2.73,7.74-7.77,10.05a26.84,26.84,0,0,1-8.87,2.3v2.68h-4.83v-2.26h-1.16c-.68,0-1.37,0-2,0v2.31h-4.84v-2.76a29.21,29.21,0,0,1-9.34-2.84c-4.36-2.35-6.95-5.64-6.95-9.51a10.58,10.58,0,0,1,2-6.18l7.77,1.15a8.36,8.36,0,0,0-1.64,4.57c0,2,1.09,3.79,3.68,5.07a15,15,0,0,0,4.43,1.32V300h4.84V310.9c.68.05,1.43.05,2.11.05h1.1V300h4.83v10.34a14.59,14.59,0,0,0,4.78-1.36,5.89,5.89,0,0,0,3.47-5.31,8,8,0,0,0-1.77-4.7Z"/><path class="cls-12" d="M120.78,352.34a9.86,9.86,0,0,1,2.59,6.42c0,4-2.72,7.75-7.77,10.05a26.83,26.83,0,0,1-8.86,2.31v2.68H101.9v-2.27h-1.16c-.68,0-1.36,0-2,0v2.31H93.86V371a29.38,29.38,0,0,1-9.34-2.85c-4.36-2.34-7-5.64-7-9.51a10.62,10.62,0,0,1,2-6.18l7.77,1.16a8.36,8.36,0,0,0-1.63,4.57c0,2,1.09,3.79,3.68,5.06a15,15,0,0,0,4.43,1.32V354.36H98.7v10.87c.68,0,1.43,0,2.11,0h1.09V354.36h4.84v10.33a14.28,14.28,0,0,0,4.77-1.36A5.87,5.87,0,0,0,115,358a8,8,0,0,0-1.77-4.69Z"/></g></g></svg>