<svg xmlns="http://www.w3.org/2000/svg" xmlns:xlink="http://www.w3.org/1999/xlink" viewBox="0 0 541.11 549.45"><defs><style>.cls-1{fill:#f2f2f7;}.cls-2{fill:none;stroke:#373a97;stroke-miterlimit:10;stroke-width:2.23px;stroke-dasharray:6.69 8.92;}.cls-3{fill:#c5e5ff;}.cls-4{fill:#4c8eb4;}.cls-5{fill:#9acae6;}.cls-6{fill:#73accd;}.cls-7{fill:url(#linear-gradient);}.cls-8{fill:url(#linear-gradient-2);}.cls-9{fill:url(#linear-gradient-3);}.cls-10{fill:url(#linear-gradient-4);}.cls-11{fill:url(#linear-gradient-5);}.cls-12{fill:#373b41;}.cls-13{fill:#ededed;}.cls-14{fill:#64696e;}.cls-15{fill:#0b253f;}.cls-16,.cls-22{fill:#16b1ef;}.cls-17{fill:#d1e6e8;}.cls-18{fill:#6b8ea5;}.cls-19{fill:#434345;}.cls-19,.cls-20,.cls-22,.cls-23,.cls-24,.cls-25,.cls-26,.cls-27,.cls-28,.cls-30{fill-rule:evenodd;}.cls-20{fill:#333132;}.cls-21,.cls-27{fill:#58595b;}.cls-23{fill:#4d4e4f;}.cls-24{fill:#6d6e70;}.cls-25,.cls-29{fill:#404041;}.cls-26{fill:#2f2f30;}.cls-28{fill:#929497;}.cls-30{fill:#808184;}</style><linearGradient id="linear-gradient" x1="307.97" y1="253.56" x2="332.81" y2="253.56" gradientUnits="userSpaceOnUse"><stop offset="0" stop-color="#0098b0"/><stop offset="0.97" stop-color="#76ccd1"/></linearGradient><linearGradient id="linear-gradient-2" x1="256.65" y1="273.14" x2="305.48" y2="273.14" xlink:href="#linear-gradient"/><linearGradient id="linear-gradient-3" x1="201.46" y1="281.19" x2="299.82" y2="281.19" gradientUnits="userSpaceOnUse"><stop offset="0" stop-color="#1b75bb"/><stop offset="1" stop-color="#2e3191"/></linearGradient><linearGradient id="linear-gradient-4" x1="256.65" y1="265.71" x2="325.64" y2="265.71" xlink:href="#linear-gradient-3"/><linearGradient id="linear-gradient-5" x1="307.97" y1="243.69" x2="357.65" y2="243.69" xlink:href="#linear-gradient-3"/></defs><title>Asset 28</title><g id="Layer_2" data-name="Layer 2"><g id="Layer_1-2" data-name="Layer 1"><path class="cls-1" d="M57.62,292.33s89.1,38.37,96.86,115.11S249,511.83,273.74,482.64,421,372,496.75,362.8s38.54-150.57,5.51-185.91-90.14-20.23-133.17-42.38-131.85-113.25-207.38-77S-91,260.28,57.62,292.33Z"/><circle class="cls-2" cx="460.09" cy="415.64" r="73.77"/><circle class="cls-3" cx="460.09" cy="415.64" r="65.94"/><circle class="cls-2" cx="96.01" cy="415.64" r="73.77"/><circle class="cls-4" cx="96.01" cy="415.64" r="65.94"/><circle class="cls-2" cx="278.05" cy="474.56" r="73.77"/><circle class="cls-5" cx="278.05" cy="474.56" r="65.94"/><circle class="cls-2" cx="96.01" cy="133.81" r="73.77"/><circle class="cls-5" cx="96.01" cy="133.81" r="65.94"/><circle class="cls-2" cx="460.09" cy="133.81" r="73.77"/><circle class="cls-4" cx="460.09" cy="133.81" r="65.94"/><circle class="cls-2" cx="278.05" cy="74.89" r="73.77"/><circle class="cls-6" cx="278.05" cy="74.89" r="65.94"/><path class="cls-7" d="M312.5,264.66s-1.32-26-4.53-34.76l20.35,5.43,4.49,19s-7.36-7.77-4.63-6.26-2.54,29.17-2.54,29.17Z"/><path class="cls-8" d="M256.65,230.34l18.42,56.85L299.82,316a140,140,0,0,0,5.62-32c1.26-19-24.4-46.84-24.4-46.84Z"/><path class="cls-9" d="M245.26,229.33c-24.57-2.5-43.8-6.61-43.8-6.61s52.79,93.68,78.1,116.94c5.83-5.12,12.85-13.59,20.26-23.71C279.06,287.29,254.5,245.4,245.26,229.33Z"/><path class="cls-10" d="M256.65,230.34c8,11.23,31.42,43.89,53.57,70.75,5.22-7.74,10.44-15.88,15.42-23.87-11.78-18.75-22.27-36.66-28-46.56-6,.36-12,.57-18.09.57C271.87,231.23,264.13,230.88,256.65,230.34Z"/><path class="cls-11" d="M333.34,264.66c13.89-23,24.31-41.94,24.31-41.94A457.21,457.21,0,0,1,308,229.9C312.3,236,321.82,249.32,333.34,264.66Z"/><line class="cls-2" x1="278.03" y1="355.34" x2="278.03" y2="393.67"/><line class="cls-2" x1="278.03" y1="155.17" x2="278.03" y2="214.55"/><line class="cls-2" x1="388.72" y1="186.2" x2="361.61" y2="213.3"/><line class="cls-2" x1="169.61" y1="187.31" x2="196.72" y2="214.42"/><line class="cls-2" x1="160.47" y1="362.89" x2="218.86" y2="304.5"/><line class="cls-2" x1="396.75" y1="362.89" x2="340.1" y2="306.25"/><rect class="cls-12" x="75.67" y="90.77" width="38.45" height="78.3" rx="6.45" transform="translate(-8.45 6.62) rotate(-3.82)"/><rect class="cls-13" x="78.46" y="101.68" width="32.99" height="56.29" transform="translate(198.33 253.05) rotate(176.19)"/><ellipse class="cls-14" cx="97.51" cy="163.18" rx="3.61" ry="3.62" transform="translate(-65.91 260.3) rotate(-89.86)"/><path class="cls-15" d="M142.11,435.05a1.89,1.89,0,0,1-2,1.78H56.18a1.88,1.88,0,0,1-2-1.78V388.54a1.88,1.88,0,0,1,2-1.78h83.95a1.89,1.89,0,0,1,2,1.78Z"/><path class="cls-16" d="M137.1,431.91a.37.37,0,0,1-.38.35H59.42a.37.37,0,0,1-.38-.35V391.85a.36.36,0,0,1,.38-.35h77.3a.36.36,0,0,1,.38.35Z"/><path class="cls-15" d="M149.71,438.09c0,1.05-2.5,1.89-3.76,1.89H49.06c-1.25,0-3.75-.84-3.75-1.89Z"/><path class="cls-17" d="M150,438.11c0,.35-.44.63-1,.63H46.05c-.54,0-1-.28-1-.63V436c0-.35.44-.64,1-.64H149c.54,0,1,.29,1,.64Z"/><path class="cls-15" d="M143.84,437.13a.21.21,0,0,1-.22.21h-7.24c-.1,0-.15-.08-.15-.21h0a.16.16,0,0,1,.18-.18h7.24a.17.17,0,0,1,.19.18Z"/><path class="cls-18" d="M143.64,436.85h-7.17c-.21,0-.37.09-.37.27a.31.31,0,0,0,.34.31h7.17a.35.35,0,0,0,.39-.31C144,436.94,143.84,436.85,143.64,436.85Zm0,.4h-7.13c-.1,0-.15-.05-.15-.14s.07-.09.16-.1h7.13c.1,0,.17,0,.17.1S143.69,437.24,143.6,437.25Z"/><path class="cls-18" d="M54.33,437.14a.59.59,0,1,1-.59-.53A.56.56,0,0,1,54.33,437.14Z"/><path class="cls-15" d="M54.12,437.14a.38.38,0,1,1-.38-.34A.36.36,0,0,1,54.12,437.14Z"/><path class="cls-18" d="M52.36,437.14a.59.59,0,1,1-.59-.53A.56.56,0,0,1,52.36,437.14Z"/><path class="cls-15" d="M52.15,437.14a.38.38,0,1,1-.38-.34A.36.36,0,0,1,52.15,437.14Z"/><path d="M137.39,391.29H58.92a.36.36,0,0,0-.37.35V432a.36.36,0,0,0,.37.35h78.47a.36.36,0,0,0,.37-.35V391.64A.36.36,0,0,0,137.39,391.29Zm-.11,40.11a.36.36,0,0,1-.37.33H59.4a.35.35,0,0,1-.36-.33V392a.35.35,0,0,1,.36-.33h77.51a.36.36,0,0,1,.37.33Z"/><path class="cls-18" d="M98.25,389a1,1,0,1,1-1-.93A1,1,0,0,1,98.25,389Z"/><path class="cls-15" d="M97.72,389a.5.5,0,0,1-1,0,.5.5,0,0,1,1,0Z"/><path class="cls-13" d="M137.28,431.52a.37.37,0,0,1-.38.35H59.6a.37.37,0,0,1-.39-.35V391.46a.36.36,0,0,1,.39-.35h77.3a.36.36,0,0,1,.38.35Z"/><path class="cls-15" d="M507.29,151.36a1.88,1.88,0,0,1-2,1.78h-84a1.89,1.89,0,0,1-2-1.78V104.85a1.89,1.89,0,0,1,2-1.78h84a1.88,1.88,0,0,1,2,1.78Z"/><path class="cls-16" d="M502.29,148.22a.36.36,0,0,1-.38.35h-77.3a.36.36,0,0,1-.39-.35V108.16a.37.37,0,0,1,.39-.35h77.3a.37.37,0,0,1,.38.35Z"/><path class="cls-15" d="M514.89,154.4c0,1-2.49,1.9-3.75,1.9H414.25c-1.26,0-3.75-.85-3.75-1.9Z"/><path class="cls-17" d="M515.14,154.42c0,.35-.44.63-1,.63H411.24c-.55,0-1-.28-1-.63v-2.07c0-.35.44-.63,1-.63H514.15c.55,0,1,.28,1,.63Z"/><path class="cls-15" d="M509,153.44a.22.22,0,0,1-.21.22h-7.24c-.1,0-.15-.09-.15-.22h0a.16.16,0,0,1,.18-.18h7.24a.16.16,0,0,1,.18.18Z"/><path class="cls-18" d="M508.82,153.16h-7.17c-.2,0-.36.09-.36.28a.3.3,0,0,0,.34.3h7.17c.2,0,.39-.12.39-.3S509,153.16,508.82,153.16Zm0,.41h-7.14a.12.12,0,0,1-.14-.13c0-.09.07-.1.16-.11h7.13c.09,0,.17,0,.17.11S508.88,153.56,508.79,153.57Z"/><path class="cls-18" d="M419.52,153.45a.57.57,0,0,1-.59.53.53.53,0,1,1,0-1.06A.57.57,0,0,1,419.52,153.45Z"/><path class="cls-15" d="M419.31,153.45a.36.36,0,0,1-.38.34.34.34,0,1,1,0-.68A.36.36,0,0,1,419.31,153.45Z"/><path class="cls-18" d="M417.55,153.45a.57.57,0,0,1-.59.53.53.53,0,1,1,0-1.06A.57.57,0,0,1,417.55,153.45Z"/><path class="cls-15" d="M417.34,153.45a.36.36,0,0,1-.38.34.34.34,0,1,1,0-.68A.36.36,0,0,1,417.34,153.45Z"/><path d="M502.58,107.6H424.11a.37.37,0,0,0-.38.35v40.31a.37.37,0,0,0,.38.35h78.47a.37.37,0,0,0,.37-.35V108A.37.37,0,0,0,502.58,107.6Zm-.12,40.11a.35.35,0,0,1-.36.34H424.59a.36.36,0,0,1-.37-.34V108.35a.36.36,0,0,1,.37-.34H502.1a.35.35,0,0,1,.36.34Z"/><path class="cls-18" d="M463.43,105.35a1,1,0,1,1-1-.92A1,1,0,0,1,463.43,105.35Z"/><path class="cls-15" d="M462.91,105.35a.51.51,0,0,1-1,0,.51.51,0,0,1,1,0Z"/><path class="cls-13" d="M502.47,147.83a.37.37,0,0,1-.39.35h-77.3a.36.36,0,0,1-.38-.35V107.77a.37.37,0,0,1,.38-.35h77.3a.38.38,0,0,1,.39.35Z"/><path class="cls-12" d="M244.51,451.41a3.2,3.2,0,0,1,3.27-3.11h64.1a3.21,3.21,0,0,1,3.28,3.11v43.83a3.21,3.21,0,0,1-3.28,3.11h-64.1a3.2,3.2,0,0,1-3.27-3.11Z"/><rect class="cls-13" x="257.51" y="444.54" width="42.12" height="57.56" transform="translate(751.9 194.75) rotate(90)"/><ellipse class="cls-14" cx="311.16" cy="473.38" rx="2.47" ry="2.47" transform="translate(-162.97 783.39) rotate(-89.86)"/><polygon class="cls-19" points="454.99 434.83 464.96 434.83 466.4 450.34 453.55 450.34 454.99 434.83"/><path class="cls-20" d="M418.8,382.3h82.58a1.4,1.4,0,0,1,1.36,1.41v52.18a1.42,1.42,0,0,1-1.41,1.41H418.84a1.42,1.42,0,0,1-1.41-1.41V383.71A1.4,1.4,0,0,1,418.8,382.3Z"/><rect class="cls-21" x="418.88" y="385.37" width="82.41" height="42.9"/><polygon class="cls-22" points="419.01 385.5 419.01 428.14 441.31 428.14 501.16 428.14 501.16 385.5 483.51 385.5 419.01 385.5"/><path class="cls-23" d="M445.39,448.86h32.47a1.84,1.84,0,0,1,1.85,1.48H443.54A1.85,1.85,0,0,1,445.39,448.86Z"/><path class="cls-24" d="M433.65,448.84h-1.48v-1a.22.22,0,0,1,.21-.23h1.05a.22.22,0,0,1,.22.23Z"/><path class="cls-24" d="M435.27,448.84h-1.48v-1a.22.22,0,0,1,.22-.23h1a.22.22,0,0,1,.22.23Z"/><path class="cls-24" d="M436.9,448.84h-1.48v-1a.22.22,0,0,1,.21-.23h1.05a.22.22,0,0,1,.22.23Z"/><path class="cls-24" d="M451,448.84h-1.48v-1a.22.22,0,0,1,.22-.23h1a.22.22,0,0,1,.21.23Z"/><path class="cls-24" d="M452.62,448.84h-1.48v-1a.22.22,0,0,1,.21-.23h1a.22.22,0,0,1,.22.23Z"/><path class="cls-24" d="M454.24,448.84h-1.48v-1a.22.22,0,0,1,.22-.23h1a.22.22,0,0,1,.21.23Z"/><path class="cls-24" d="M455.89,448.84h-1.48v-1a.22.22,0,0,1,.22-.23h1.05a.22.22,0,0,1,.21.23Z"/><path class="cls-24" d="M457.54,448.84h-1.48v-1a.22.22,0,0,1,.22-.23h1.05a.22.22,0,0,1,.21.23Z"/><path class="cls-24" d="M459.19,448.84h-1.48v-1a.22.22,0,0,1,.22-.23H459a.22.22,0,0,1,.21.23Z"/><path class="cls-24" d="M460.84,448.84h-1.48v-1a.22.22,0,0,1,.22-.23h1.05a.22.22,0,0,1,.21.23Z"/><path class="cls-24" d="M463.44,448.84H462v-1a.22.22,0,0,1,.22-.23h1.05a.22.22,0,0,1,.22.23Z"/><path class="cls-24" d="M465,448.84h-1.48v-1a.22.22,0,0,1,.22-.23h1.05a.22.22,0,0,1,.21.23Z"/><path class="cls-24" d="M466.59,448.84h-1.48v-1a.22.22,0,0,1,.22-.23h1a.22.22,0,0,1,.22.23Z"/><path class="cls-24" d="M468.17,448.84h-1.48v-1a.22.22,0,0,1,.22-.23h1a.22.22,0,0,1,.22.23Z"/><path class="cls-24" d="M449.31,448.81l-12.27,0v-1a.22.22,0,0,1,.22-.23l11.83,0a.2.2,0,0,1,.16.07.23.23,0,0,1,.06.16Z"/><path class="cls-25" d="M469.23,449.62c0,.39-.24.72-.53.72H431.64c-.29,0-.53-.33-.53-.72V449c0-.4.24-.72.53-.72H468.7c.29,0,.53.32.53.72Z"/><path class="cls-26" d="M431.11,449.44v.18c0,.39.24.72.53.72H468.7c.29,0,.53-.33.53-.72v-.18Z"/><path class="cls-27" d="M496,449.37a.56.56,0,0,1-.56.56h-7.78a.56.56,0,0,1-.56-.56C487.08,446.15,496,446.07,496,449.37Z"/><path class="cls-28" d="M487.18,448.76c.88-2.48,7.76-2.63,8.7,0-1,.53-2.58.46-4.35.46S488.19,449.29,487.18,448.76Z"/><path class="cls-25" d="M492,447a0,0,0,0,1-.05.05h-.74a0,0,0,0,1-.05-.05v-.23c0-.06.15-.12.34-.12h.16c.19,0,.34.06.34.12Z"/><rect class="cls-29" x="483.83" y="449.9" width="15.4" height="0.49" rx="0.18"/><path class="cls-30" d="M489.52,433.59a.49.49,0,0,0,.48-.48.48.48,0,0,0-.48-.47.47.47,0,0,0-.47.47A.48.48,0,0,0,489.52,433.59Z"/><path class="cls-30" d="M492,433.59a.48.48,0,0,0,.48-.48.48.48,0,0,0-.95,0A.48.48,0,0,0,492,433.59Z"/><path class="cls-30" d="M494.56,433.59a.48.48,0,0,0,.48-.48.48.48,0,0,0-1,0A.48.48,0,0,0,494.56,433.59Z"/><path class="cls-30" d="M497.09,433.59a.48.48,0,0,0,.47-.48.48.48,0,0,0-.95,0A.48.48,0,0,0,497.09,433.59Z"/><rect class="cls-13" x="419.08" y="385.42" width="82.08" height="42.68"/><polygon class="cls-19" points="272 92.58 281.98 92.58 283.42 108.08 270.56 108.08 272 92.58"/><path class="cls-20" d="M235.81,40.05h82.58a1.39,1.39,0,0,1,1.36,1.41V93.63A1.41,1.41,0,0,1,318.34,95H235.86a1.41,1.41,0,0,1-1.41-1.41V41.46A1.39,1.39,0,0,1,235.81,40.05Z"/><rect class="cls-21" x="235.9" y="43.12" width="82.41" height="42.9"/><polygon class="cls-22" points="236.03 43.25 236.03 85.89 258.32 85.89 318.18 85.89 318.18 43.25 300.53 43.25 236.03 43.25"/><path class="cls-23" d="M262.41,106.6h32.47a1.86,1.86,0,0,1,1.85,1.48H260.56A1.84,1.84,0,0,1,262.41,106.6Z"/><path class="cls-24" d="M250.66,106.58h-1.48v-1a.22.22,0,0,1,.22-.23h1a.22.22,0,0,1,.21.23Z"/><path class="cls-24" d="M252.29,106.58h-1.48v-1a.22.22,0,0,1,.21-.23h1a.22.22,0,0,1,.22.23Z"/><path class="cls-24" d="M253.91,106.58h-1.48v-1a.22.22,0,0,1,.22-.23h1a.22.22,0,0,1,.22.23Z"/><path class="cls-24" d="M268,106.58h-1.48v-1a.22.22,0,0,1,.22-.23h1a.22.22,0,0,1,.22.23Z"/><path class="cls-24" d="M269.63,106.58h-1.48v-1a.22.22,0,0,1,.22-.23h1.05a.22.22,0,0,1,.21.23Z"/><path class="cls-24" d="M271.26,106.58h-1.48v-1a.22.22,0,0,1,.21-.23H271a.22.22,0,0,1,.22.23Z"/><path class="cls-24" d="M272.91,106.58h-1.48v-1a.22.22,0,0,1,.21-.23h1.05a.22.22,0,0,1,.22.23Z"/><path class="cls-24" d="M274.56,106.58h-1.48v-1a.22.22,0,0,1,.21-.23h1a.22.22,0,0,1,.22.23Z"/><path class="cls-24" d="M276.21,106.58h-1.48v-1a.22.22,0,0,1,.21-.23H276a.22.22,0,0,1,.22.23Z"/><path class="cls-24" d="M277.86,106.58h-1.48v-1a.22.22,0,0,1,.21-.23h1.05a.22.22,0,0,1,.22.23Z"/><path class="cls-24" d="M280.45,106.58H279v-1a.22.22,0,0,1,.22-.23h1a.22.22,0,0,1,.22.23Z"/><path class="cls-24" d="M282,106.58h-1.48v-1a.22.22,0,0,1,.22-.23h1a.22.22,0,0,1,.22.23Z"/><path class="cls-24" d="M283.61,106.58h-1.48v-1a.22.22,0,0,1,.21-.23h1.05a.22.22,0,0,1,.22.23Z"/><path class="cls-24" d="M285.19,106.58H283.7v-1a.22.22,0,0,1,.22-.23H285a.22.22,0,0,1,.22.23Z"/><path class="cls-24" d="M266.33,106.56l-12.28,0v-1a.24.24,0,0,1,.22-.24l11.84,0a.21.21,0,0,1,.15.07.26.26,0,0,1,.07.16Z"/><path class="cls-25" d="M286.25,107.36c0,.4-.24.72-.53.72H248.65c-.29,0-.53-.32-.53-.72v-.65c0-.4.24-.73.53-.73h37.07c.29,0,.53.33.53.73Z"/><path class="cls-26" d="M248.12,107.19v.17c0,.4.24.72.53.72h37.07c.29,0,.53-.32.53-.72v-.17Z"/><path class="cls-27" d="M313,107.11a.56.56,0,0,1-.56.56h-7.79a.56.56,0,0,1-.56-.56C304.09,103.89,313,103.81,313,107.11Z"/><path class="cls-28" d="M304.2,106.5c.88-2.48,7.76-2.63,8.69,0-1,.54-2.58.47-4.34.47S305.21,107,304.2,106.5Z"/><path class="cls-25" d="M309,104.74a0,0,0,0,1,0,.05h-.73a.06.06,0,0,1-.06-.05v-.22c0-.07.16-.12.35-.12h.15c.19,0,.34,0,.34.12Z"/><rect class="cls-29" x="300.85" y="107.65" width="15.4" height="0.49" rx="0.18"/><path class="cls-30" d="M306.54,91.33a.47.47,0,0,0,.47-.47.48.48,0,0,0-.47-.48.49.49,0,0,0-.48.48A.48.48,0,0,0,306.54,91.33Z"/><path class="cls-30" d="M309.06,91.33a.47.47,0,0,0,.47-.47.48.48,0,0,0-.47-.48.49.49,0,0,0-.48.48A.48.48,0,0,0,309.06,91.33Z"/><path class="cls-30" d="M311.58,91.33a.47.47,0,0,0,.47-.47.48.48,0,0,0-.47-.48.49.49,0,0,0-.48.48A.48.48,0,0,0,311.58,91.33Z"/><path class="cls-30" d="M314.1,91.33a.48.48,0,0,0,.48-.47.49.49,0,0,0-.48-.48.48.48,0,0,0-.47.48A.47.47,0,0,0,314.1,91.33Z"/><rect class="cls-13" x="236.09" y="43.17" width="82.08" height="42.68"/></g></g></svg>