<svg id="Layer_1" data-name="Layer 1" xmlns="http://www.w3.org/2000/svg" viewBox="0 0 557.28 497.06"><defs><style>.cls-1{fill:#f2f2f7;}.cls-2{fill:#8587bd;}.cls-3{fill:#f5a85b;}.cls-10,.cls-4,.cls-5,.cls-6,.cls-8,.cls-9{fill:none;stroke-miterlimit:10;}.cls-10,.cls-4,.cls-6{stroke:#f5a85b;}.cls-10,.cls-4,.cls-5{stroke-width:6px;}.cls-5,.cls-9{stroke:#a4dadd;}.cls-6,.cls-8,.cls-9{stroke-width:6.26px;}.cls-7{fill:#a4dadd;}.cls-8{stroke:#8587bd;}.cls-10{stroke-dasharray:31.29 12.51;}</style></defs><title>ilustraçõesSpa [Recovered]</title><path class="cls-1" d="M169.36,464.65s20.7-20.39,86.17-7.65S388.16,513.93,436,490.14s-3.92-87.85,18.47-127.46S509.33,285.29,535.06,254C558.2,225.88,576.19,99.28,520,51.69S397.39-7.2,351.23,4,193.41,78.81,141.37,59.3,14.16,73.71,2,152.81c-10.14,66,21,141.9,21.82,172.49S38.7,571.71,169.36,464.65Z"/><rect class="cls-2" x="166.78" y="302.02" width="30.34" height="86.56"/><rect class="cls-2" x="228.8" y="257.38" width="30.91" height="131.2"/><rect class="cls-2" x="289.97" y="282.96" width="30.33" height="105.62"/><rect class="cls-2" x="350.11" y="229.61" width="28.31" height="158.97"/><circle class="cls-3" cx="184.6" cy="242.68" r="12.52"/><circle class="cls-4" cx="234.69" cy="176.8" r="12.52"/><circle class="cls-4" cx="296.75" cy="210.01" r="12.52"/><path class="cls-5" d="M323.43,170.81a64.71,64.71,0,0,1-12.52-16.87A68.85,68.85,0,0,1,339.76,60.3a70.59,70.59,0,0,1,94.73,28.85c19.05,33.75,6,75.67-28.85,93.64-24,10.89-52.27,9.26-74-6"/><path class="cls-6" d="M387.67,146.86l-1.09-37.57c0-3.26-3.81-6-6.53-5.44l-38.65,8.71"/><path class="cls-7" d="M461.17,285.14c-7.08,3.81-16.34.54-20.15-6l-29.4-54.44,26.14-13.61,29.4,54.44A14.45,14.45,0,0,1,461.17,285.14Z"/><polyline class="cls-8" points="391.35 388.58 131.21 388.58 117.63 388.58 117.63 142.19"/><line class="cls-9" x1="405.64" y1="182.79" x2="424.52" y2="218"/><line class="cls-10" x1="194.4" y1="230.15" x2="225.59" y2="185.52"/><line class="cls-10" x1="247.21" y1="176.8" x2="285.54" y2="201.23"/><line class="cls-10" x1="304.9" y1="200.39" x2="375.69" y2="114.6"/></svg>