<svg id="Layer_1" data-name="Layer 1" xmlns="http://www.w3.org/2000/svg" viewBox="0 0 583.94 477.57"><defs><style>.cls-1{fill:#f2f2f7;}.cls-2{fill:#f5a85b;}.cls-3{fill:#a4dadd;}.cls-4,.cls-5{fill:none;stroke:#8587bd;stroke-miterlimit:10;stroke-width:6px;}.cls-4{stroke-dasharray:31.28 12.51;}.cls-6{fill:#8587bd;}</style></defs><title>ilustraçõesSpa [Recovered]</title><path class="cls-1" d="M55.27,266c34.21,19.36,97.42,42,105.91,125.87s87.49,92.52,130.41,82.22c44.54-10.69,161.06-121,243.85-131s42.14-164.64,6-203.28S442.9,117.66,395.84,93.44,251.68-30.39,169.08,9.19-89.48,184.13,55.27,266Z"/><path class="cls-2" d="M171.22,189.08H262c0-27.9-12-51.73-29-61.23a31,31,0,1,0-32.77,0C183.25,137.35,171.22,161.18,171.22,189.08Z"/><path class="cls-3" d="M458.9,194.56H421.63a141.34,141.34,0,0,0-13.47-32.51l26.36-26.36a5.88,5.88,0,0,0,0-8.28L389.31,82.2a5.88,5.88,0,0,0-8.28,0l-26.37,26.37a141.55,141.55,0,0,0-32.5-13.48h0V57.82A5.86,5.86,0,0,0,316.31,52H284.05v98.11h.29A82.31,82.31,0,1,1,202,232.41H103.93v31.94a5.87,5.87,0,0,0,5.85,5.85h37.27a140.93,140.93,0,0,0,13.48,32.51l-26.36,26.36a5.87,5.87,0,0,0,0,8.28l45.21,45.2a5.85,5.85,0,0,0,8.27,0L214,356.19a141.45,141.45,0,0,0,32.5,13.47v37.28a5.87,5.87,0,0,0,5.86,5.85h63.93a5.86,5.86,0,0,0,5.85-5.85V369.66a141.52,141.52,0,0,0,32.51-13.47L381,382.55a5.87,5.87,0,0,0,8.28,0l45.21-45.2a5.88,5.88,0,0,0,0-8.28L408.15,302.7a140.85,140.85,0,0,0,13.48-32.5H458.9a5.86,5.86,0,0,0,5.85-5.85V200.41A5.86,5.86,0,0,0,458.9,194.56Z"/><path class="cls-4" d="M432.78,297.36a35.66,35.66,0,1,1,35.65-35.66A35.7,35.7,0,0,1,432.78,297.36Z"/><path class="cls-5" d="M449.46,307.4c-.16.06-.32.13-.49.18a47.12,47.12,0,0,1-4.89,1.44l-.39.11a48.47,48.47,0,0,1-21.83,0l-.39-.11a46.94,46.94,0,0,1-4.88-1.44c-.16-.06-.33-.13-.5-.18a48.72,48.72,0,1,1,38.13-2A47.32,47.32,0,0,1,449.46,307.4ZM451,417.46l-14-14a6.1,6.1,0,0,0-8.61,0l-14,14V319.77c.65.21,1.32.35,2,.53,1.05.3,2.11.59,3.18.83.72.15,1.45.29,2.18.42,1.15.2,2.29.38,3.44.52.67.08,1.34.17,2,.23,1.65.15,3.32.24,5,.26l.48,0,.47,0c1.66,0,3.33-.11,5-.26.67-.06,1.34-.15,2-.23,1.15-.14,2.29-.32,3.43-.52l2.19-.42c1.07-.24,2.12-.53,3.18-.83.65-.18,1.33-.32,2-.53Z"/><path class="cls-6" d="M141.09,189.08h90.76c0-27.9-12-51.73-29-61.23a31,31,0,1,0-32.78,0C153.12,137.35,141.09,161.18,141.09,189.08Z"/></svg>