<svg id="Layer_1" data-name="Layer 1" xmlns="http://www.w3.org/2000/svg" viewBox="0 0 599.25 499.13"><defs><style>.cls-1{fill:#f2f2f7;}.cls-2{fill:none;stroke:#fff;stroke-miterlimit:10;stroke-width:6px;stroke-dasharray:30 12;}.cls-3{fill:#a4dadd;}.cls-4{fill:#f5a85b;}.cls-5{fill:#8587bd;}</style></defs><title>ilustraçõesSpa [Recovered]</title><path class="cls-1" d="M444.57,360c-34.84-4.08-90.26-21.53-133.81,41.89s-96.93,120.68-146.1,83.32c-23.9-18.16-49.1-48.31-55.21-116.63S57.29,219.46,27.31,186.2C5,161.49-66.1,6.07,173.1.35S367.85,60.16,471,76,623.36,172,587.74,222.69,620.45,380.54,444.57,360Z"/><line class="cls-2" x1="549.67" y1="90.38" x2="149.75" y2="497.02"/><path class="cls-3" d="M424,241.22c6.86,7.85,11.76,17.16,15.69,27.45l1,2.94,73-15.19-1-3.92a158.12,158.12,0,0,0-31.86-59.31,160.66,160.66,0,0,0-110.27-56.36l-3.92-.49v74.5l2.94.49C391.12,214.76,410.24,225.05,424,241.22Z"/><path class="cls-3" d="M272.52,303a86.18,86.18,0,0,1,29.89-71.56,84,84,0,0,1,44.11-19.6l3.44-.49v-74.5H346A160.67,160.67,0,0,0,199,317.19l.49,3.92,73-14.7Zm-5.39-26.47-50.48-37.74a122.17,122.17,0,0,1,10.78-21.07L276,253.48A101.45,101.45,0,0,0,267.13,276.51Zm12.25-29.41-48-35.77a178.91,178.91,0,0,1,14.21-18.14L294.08,229A85.25,85.25,0,0,0,279.38,247.1Zm50-38.71L275.46,168.2a130,130,0,0,1,23-12.26l44.11,32.84V205A65.8,65.8,0,0,0,329.37,208.39Zm13.23-28.92L306.83,153a177.44,177.44,0,0,1,36.26-8.33Zm-83.32,1c3.44-2.94,6.87-5.39,10.3-7.84l51.95,38.72A88.14,88.14,0,0,0,300,224.56l-49-36.27A63.1,63.1,0,0,1,259.28,180.45ZM206.35,279l35.29,26.47-35.78,7.35A155.16,155.16,0,0,1,206.35,279Zm45.09,24-43.62-32.84a138.79,138.79,0,0,1,6.37-24.51l51.47,39.21c-.49,4.9-1,10.3-1,15.69Z"/><path class="cls-3" d="M517.57,276.51l-.49-3.92-73,15.19v3.43a87.09,87.09,0,0,1-8.34,43.13l-1.47,3L497,378l2-3.43A161.63,161.63,0,0,0,517.57,276.51Z"/><path class="cls-4" d="M423.47,353a92.53,92.53,0,0,1-9.8,9.8,86.41,86.41,0,0,1-55.87,20.59h0A86.13,86.13,0,0,1,292.12,353c-6.86-7.84-11.76-17.16-15.68-27.45l-1-2.94-72.54,15.2,1,3.43a158.22,158.22,0,0,0,31.86,59.3,160.73,160.73,0,0,0,122.53,56.85h0a161.73,161.73,0,0,0,103.9-38.23,186.09,186.09,0,0,0,23.53-24.5l2.45-2.94-62.25-41.17Zm53.91,40.19a159.09,159.09,0,0,1-20.09,20.58A153.2,153.2,0,0,1,241.64,396.1a156.44,156.44,0,0,1-29.41-52.93l59.31-12.26a102,102,0,0,0,15.68,26.47c17.64,21.07,43.62,32.84,71.56,32.84h0a93.17,93.17,0,0,0,60.28-22.06c2.94-2.45,5.39-4.9,8.33-7.84Z"/><rect class="cls-5" x="128.06" y="141.81" width="133.62" height="12.61" transform="translate(-47.65 181.17) rotate(-45)"/><path class="cls-5" d="M203.36,184.89a26.06,26.06,0,1,0,26.06-26A26.18,26.18,0,0,0,203.36,184.89Zm39.5,0a13.45,13.45,0,1,1-13.44-13.45A13.28,13.28,0,0,1,242.86,184.89Z"/><path class="cls-5" d="M158.82,139.51a26.06,26.06,0,1,0-26-26.06A26.18,26.18,0,0,0,158.82,139.51Zm0-39.5a13.45,13.45,0,1,1-13.44,13.44A13.27,13.27,0,0,1,158.82,100Z"/><path class="cls-4" d="M286.73,297.1a71.56,71.56,0,1,0,71.56-71.56A71.64,71.64,0,0,0,286.73,297.1Zm71.56-64.21a64.21,64.21,0,1,1-64.21,64.21A64.43,64.43,0,0,1,358.29,232.89Z"/></svg>