<svg xmlns="http://www.w3.org/2000/svg" xmlns:xlink="http://www.w3.org/1999/xlink" width="74.035" height="74.383" viewBox="0 0 74.035 74.383"><defs><style>.a{fill:#0084ff;}.b{filter:url(#a);}</style><filter id="a" x="0" y="0" width="74.035" height="74.383" filterUnits="userSpaceOnUse"><feOffset dy="3" input="SourceAlpha"/><feGaussianBlur stdDeviation="3" result="b"/><feFlood flood-opacity="0.161"/><feComposite operator="in" in2="b"/><feComposite in="SourceGraphic"/></filter></defs><g class="b" transform="matrix(1, 0, 0, 1, 0, 0)"><path class="a" d="M124.017,93C108.544,93,96,104.687,96,119.1a25.429,25.429,0,0,0,10.441,20.327v9.953l9.54-5.268a29.929,29.929,0,0,0,8.036,1.092c15.474,0,28.017-11.687,28.017-26.1S139.491,93,124.017,93Zm2.784,35.152-7.135-7.657-13.922,7.657,15.314-16.358,7.309,7.657,13.748-7.657Z" transform="translate(-87 -87)"/></g></svg>