<svg xmlns="http://www.w3.org/2000/svg" xmlns:xlink="http://www.w3.org/1999/xlink" width="72.489" height="54.322" viewBox="0 0 72.489 54.322"><defs><style>.a{fill:url(#a);}.b{fill:url(#b);}.c{fill:url(#c);}.d{fill:url(#d);}.e{fill:url(#e);}</style><linearGradient id="a" x1="0.005" y1="0.496" x2="1.005" y2="0.496" gradientUnits="objectBoundingBox"><stop offset="0" stop-color="#0098b0"/><stop offset="0.973" stop-color="#76cdd2"/></linearGradient><linearGradient id="b" x1="0.001" y1="0.501" x2="1.002" y2="0.501" xlink:href="#a"/><linearGradient id="c" x1="-0.001" y1="0.5" x2="1.001" y2="0.5" gradientUnits="objectBoundingBox"><stop offset="0.002" stop-color="#1b75bc"/><stop offset="1" stop-color="#2e3192"/></linearGradient><linearGradient id="d" x1="0.001" y1="0.5" x2="1.001" y2="0.5" xlink:href="#c"/><linearGradient id="e" x1="0.003" y1="0.499" x2="1.003" y2="0.499" xlink:href="#c"/></defs><g transform="translate(-8.2 -100.3)"><g transform="translate(8.2 100.3)"><path class="a" d="M65.548,120.209S64.921,108.127,63.4,104.1l9.486,2.506,2.058,8.86s-3.4-3.58-2.148-2.864-1.163,13.513-1.163,13.513Z" transform="translate(-14 -100.699)"/><path class="b" d="M36.8,104.2l8.591,26.4,11.455,13.334a63.015,63.015,0,0,0,2.6-14.856c.626-8.86-11.366-21.747-11.366-21.747Z" transform="translate(-11.205 -100.71)"/><path class="c" d="M28.515,103.343C17.06,102.179,8.2,100.3,8.2,100.3s24.521,43.494,36.245,54.322a76.1,76.1,0,0,0,9.4-11.008C44.266,130.28,32.811,110.86,28.515,103.343Z" transform="translate(-8.2 -100.3)"/><path class="d" d="M36.8,104.2c3.759,5.28,14.587,20.4,24.879,32.933,2.416-3.58,4.833-7.338,7.159-11.1-5.459-8.681-10.381-17-12.976-21.657-2.774.179-5.638.268-8.412.268C43.87,104.647,40.29,104.469,36.8,104.2Z" transform="translate(-11.205 -100.71)"/><path class="e" d="M75.213,119.809C81.657,109.16,86.489,100.3,86.489,100.3A203.938,203.938,0,0,1,63.4,103.611C65.458,106.475,69.933,112.65,75.213,119.809Z" transform="translate(-14 -100.3)"/></g></g></svg>