<svg xmlns="http://www.w3.org/2000/svg" width="240.923" height="46.266" viewBox="0 0 240.923 46.266">
  <g id="Group_7" data-name="Group 7" transform="translate(-26.558 -36.383)">
    <path id="Path_6" data-name="Path 6" d="M41.129,41.547a20.65,20.65,0,0,1,10.915-.409c.2.1.328.222.332.365.077,2.375-11.147,4.555-13.356,4.7,2.221.224,15.509-1.311,15.859-4.188a21,21,0,0,1,7.111,4.6c1.429,7.559-21.5,13.05-27.021,12.314,6.584,1.762,26.224-.381,29.556-9.289a20.671,20.671,0,0,1,2.69,5.522c.145.46.27.92.381,1.382-.251,8.208-19.533,14.027-25.914,13.2,7.539,2.1,22.467-1.532,26.48-8.884a20.783,20.783,0,0,1-1.094,7.168c-1.252,3.872-12.362,11.1-18.693,10.191,4.413,1.311,11.1-.55,15.666-4.406A20.8,20.8,0,1,1,41.129,41.547" transform="translate(0 -1.885)" fill="#00599f" fill-rule="evenodd"/>
    <g id="Group_6" data-name="Group 6" transform="translate(83.682 36.383)">
      <g id="Group_5" data-name="Group 5">
        <path id="Path_7" data-name="Path 7" d="M142.42,60.2h15.532c2.53-.023,4.061-.059,4.581-.1,1.824-.139,2.989-.794,3.488-1.987a11.268,11.268,0,0,0,.479-3.964,9.249,9.249,0,0,0-.541-3.768c-.53-1.079-1.662-1.677-3.376-1.781-.53-.044-2.081-.091-4.632-.137H142.42m-12.432,34.46V36.982h27.944a93.909,93.909,0,0,1,10.69.367q6.58.983,8.731,5.285c1.07,2.158,1.612,6,1.612,11.543q0,8.512-1.765,11.947a9.022,9.022,0,0,1-5.527,4.468,28.33,28.33,0,0,1-7.62,1.045c-1.439.023-3.438.036-6.008.036H142.42V82.917Z" transform="translate(-129.988 -36.651)" fill="#1a1818" fill-rule="evenodd"/>
        <path id="Path_8" data-name="Path 8" d="M331.281,37.415h17.454l9.959,31.411L369.84,37.415h17.338l7.157,39.254c.3,1.667.432,2.817,2.074,3.834a5.217,5.217,0,0,0,2.725.692,15.6,15.6,0,0,0,.194,1.642H381.546L377.2,50.388,366.561,82.837H350.115l-9.27-32.329-6.028,32.329H321.061" transform="translate(-215.531 -36.845)" fill="#1a1818" fill-rule="evenodd"/>
        <path id="Path_9" data-name="Path 9" d="M236.516,70.848h17.421a48.866,48.866,0,0,0,7.921-.474,4.416,4.416,0,0,0,3.668-3.621A31.371,31.371,0,0,0,266.1,59.7a34.1,34.1,0,0,0-.606-7.554,4.431,4.431,0,0,0-3.308-3.657,40.544,40.544,0,0,0-8.362-.543H236.516M224.179,78.813V36.383h29.645q9.662,0,12.482.369,5.484.713,8.074,3.228,2.759,2.707,3.637,8.735a81.611,81.611,0,0,1,.42,10.078,75.426,75.426,0,0,1-.718,12.771c-.669,3.252-1.747,5.646-3.257,7.185a9.734,9.734,0,0,1-3.729,2.406,24.977,24.977,0,0,1-5.927,1.191q-2.96.3-10.95.3H224.179Z" transform="translate(-172.157 -36.383)" fill="#1a1818" fill-rule="evenodd"/>
      </g>
    </g>
  </g>
</svg>
